<?xml version="1.0" encoding="UTF-8"?>
<svg id="Layer_2" data-name="Layer 2" xmlns="http://www.w3.org/2000/svg" viewBox="0 0 592.14 547.69">
  <g id="Layer_1-2" data-name="Layer 1">
    <g>
      <path d="M116.16,393.06s-81.58,61.09-81.58,61.09c-8.19,6.35-15.79,13.37-21.49,21.9-7.93,11.39-9.7,26.2,1.99,35.72,16.83,13.34,39.15,4.11,56.81-3.36,113.83-46.51,226.19-97.59,336.09-152.74,37.15-18.55,76.61-38.74,113.29-58.15,20.92-11.03,46.59-24.75,67.43-35.97,1.13-.62,2.55-.19,3.16.94.59,1.11.2,2.49-.89,3.11-117.51,68.33-239.52,129.62-363.66,184.93-46.24,20.64-93.93,41.06-140.86,59.88-23.34,9.13-52.62,25.09-75.71,6.64-7.51-6.01-11.64-15.93-10.59-25.51,2.29-18.15,17.12-31.68,30.75-42.22,0,0,82.49-60,82.49-60,2.55-1.74,5.13,1.89,2.76,3.74h0Z"/>
      <path d="M269.92,267.97c-49.35,18.83-96.53,44.02-137.81,76.78-4.14,3.7-8.23,7.65-9.7,13.03-1.54,6.87,5.08,9.5,10.88,9.44,7.45.12,14.66-1.78,22.29-3.22,36.74-7.41,73.45-15.33,110.25-22.6,0,0,18.43-3.6,18.43-3.6,9.64-1.82,20.13-4.42,29.89-1.29,5.88,1.8,10.94,6.98,11.75,13.31.87,6-2.63,11.96-6.29,15.9-4.65,5.04-10.35,8.89-16.48,11.71-50.58,24.52-101.42,48.86-152.44,72.45-.99.46-2.16.03-2.62-.96-.44-.96-.05-2.09.88-2.57,44.41-23.06,89.07-45.62,133.87-67.9,0,0,16.8-8.36,16.8-8.36,5.19-2.45,10.06-5.74,13.88-9.91,3.09-3.48,5.77-7.82,3.15-11.95-1.21-1.93-2.86-3.05-5.11-3.79-7.78-2.42-17.79.12-25.7,1.57-42.91,8.19-85.86,17.31-128.75,25.62-10.82,1.82-24.19,5.94-34.8.5-10.27-6.07-8.7-17.55-1.83-25.61,2.17-2.69,4.62-4.98,7.1-7.09,42.33-32.9,90.68-57.59,141.02-75.17,2.41-.75,3.74,2.69,1.34,3.7h0Z"/>
      <path d="M147.71,446.8c9.9-22.11,26.73-41.84,48.85-52.42,19.98-9.48,40.26-9.43,58.85,3.16,13.49,9.06,25.32,21.38,31.5,36.59,4.2,9.33,7.09,17.73,9.98,27.76.21.65.43,1.3.65,1.77.08.21.25.41.11.24-.06-.06-.36-.33-.82-.39-.34-.03-.59-.04-.86.11-.05.02-.09.03-.13.05-.07.02-.17.14-.17.13,0,0-.02,0-.02,0,1.68-3.24,2.1-7.11,2.85-10.82.96-5.63,1.69-11.35,2.38-17.08.68-5.74,1.35-11.48,1.94-17.22.62-5.75,1.09-11.49,1.93-17.36.37-2.31.71-4.64,1.65-6.91.95-2.58,3.82-4.42,6.59-2.75,2.36,1.52,3.55,3.69,4.91,5.8,6.22,9.99,11.02,21.04,13.71,32.54,0,0,0,.02,0,.02l-4.55.29c.97-12.86,3.09-25.66,6.28-38.2,1.64-6.32,3.32-12.42,5.39-18.64,1.71-4.84,3.54-10,7.29-14.03,9.27-9.28,18.99.48,24.7,8.19,4.05,5.11,7.76,10.72,10.87,16.42,9.43,16.83,17.7,33.95,26.99,50.71,2.98,5.2,5.89,10.79,9.69,15.32.2.22.38.39.5.5.1.11.25.13-.21-.07-1.44-.61-3.62.34-4.08,1.8.2-4.12-.84-8.38-1.62-12.59-1.07-5.11-3.21-13.29-4.47-18.48-31.55-130.45-51.46-264.81-48.32-399.34.48-5.04,1-10.17,2.74-15.12.93-2.17,1.69-4.29,4.2-5.89,2.79-1.78,6.49-.75,8.78,1.36,4.12,3.59,6.62,8.24,9.23,12.69,6.24,11.19,11.3,23.5,15.83,35.45,4.43,11.85,8.65,24.33,12.66,36.29,49.7,151.72,94.42,304.96,139.71,458.02.36,1.23-.34,2.51-1.57,2.87-1.22.36-2.5-.34-2.86-1.55-48.75-158.08-98.08-328.32-151.63-484.06-3.06-8.62-6.72-18.12-10.45-26.46-2.58-5.75-5.3-11.45-8.33-16.85-2.16-3.8-4.45-7.69-7.49-10.51-.19-.14-.41-.34-.54-.39-.07-.04-.15-.11-.2-.13-.03,0-.05,0-.07-.03-.05-.05.05.04.09.02.03,0,.05,0,.08-.01.17.07.37-.04.52-.06.08-.03.16-.07.24-.11.19-.15-.06.04-.27.44-.23.4-.48.92-.69,1.53-3.02,10.24-2.62,21.22-2.81,31.93.53,130.6,19.62,260.71,51.55,387.23.59,2.45,1.76,6.89,2.24,9.44.65,3.2,1.27,6.4,1.66,9.84.21,2.4.5,4.65-.32,7.22-.91,2.79-4.1,4.38-6.8,3.21-1.79-.75-2.35-1.49-3.42-2.55-4.48-5.22-7.5-11.07-10.88-16.92-3.14-5.64-6.11-11.32-9.06-16.99-5.9-11.35-11.65-22.76-17.66-33.86-4.3-7.91-9.53-15.96-15.78-22.3-4.05-3.78-6.73-3.33-9.78,1.99-4.37,7.95-6.73,17.43-9.49,26.12-3.55,12.09-6.12,24.47-7.81,37.01-.23,2.55-4,2.89-4.56.27-2.6-11.08-7.14-21.51-13.15-31.19-.99-1.47-1.96-3.29-3.26-4.2-.11-.07-.09-.02,0-.03.11.02.26-.03.32-.08.1-.08-.2.2-.39.69-.7,1.75-1.01,3.78-1.32,5.74-.8,5.6-1.28,11.4-1.9,17.16-.59,5.78-1.26,11.54-1.95,17.29-.7,5.76-1.43,11.53-2.42,17.31-.67,3.65-1.28,7.46-2.73,11.05-.45,1.02-1.09,2.24-2.17,2.85-3.33,1.72-4.98-1.84-5.67-4.37-.89-2.86-1.65-5.58-2.53-8.31-.93-2.85-2.26-6.84-3.04-8.78-2.82-6.96-5.52-14.1-9.5-20.48-9.47-13.97-23.73-26.6-40.01-31.68-20.68-6.01-42.54,3.75-58.17,17.25-11.72,10.19-20.94,23.18-27.3,37.38-.52,1.17-1.89,1.69-3.05,1.17-1.17-.52-1.69-1.89-1.17-3.06h0Z"/>
      <path d="M363.07,320.14c-.55,1.94-2.37,3.39-4.54,3.66-.37.03-.72.04-1.07.02-1.41-.06-2.62-.51-3.48-.9-3.95-1.75-7.28-4.98-9.17-8.86-.47-.95-.97-2.24-.85-3.7.12-1.66,1.09-3.1,2.46-3.76.03-.11.1-.23.15-.34.67-1.08,2.1-1.43,3.18-.76,3.85,2.35,7.46,5.1,10.72,8.21.87.8,3.47,3.28,2.59,6.41Z"/>
    </g>
  </g>
</svg>