<?xml version="1.0" encoding="UTF-8"?>
<svg id="Layer_2" data-name="Layer 2" xmlns="http://www.w3.org/2000/svg" viewBox="0 0 1245.49 577.63">
  <defs>
    <style>
      .cls-1 {
        fill-rule: evenodd;
      }

      .cls-1, .cls-2 {
        fill: #fff;
        stroke-width: 0px;
      }
    </style>
  </defs>
  <g id="Layer_1-2" data-name="Layer 1">
    <g>
      <path class="cls-2" d="M205.48,514.56c-11.29,0-22.25-1.63-32.55-4.86-44.15-13.78-65.18-53.19-66.05-54.86-20.91-39.68-16.31-89.68,11.45-124.44,11.62-14.56,26.46-25.59,44.11-32.79l.93-.38h0c18.98-7.56,37-9.15,48.84-9.15,6.36,0,10.03.48,10.07.48l21.42,2.83-18-11.95c-21.18-14.06-44.56-21.62-67.61-21.85-.37,0-.74,0-1.11,0-42.64,0-83.94,25.13-116.28,70.77-15.39,21.67-25.2,46.63-29.25,74.4-7.61-21.61-11.46-44.43-11.46-68.09C0,236.67,153.97,34.35,180.68,0c23.68,30.45,147.48,193.03,175.17,297.87,3.65,13.91,5.5,26.29,5.5,36.79,0,52.19-19.08,101.11-53.72,137.79-31.42,27.16-67.69,42.11-102.15,42.11Z"/>
      <path class="cls-2" d="M201.28,577.63c-43.25,0-100.83-18.39-132.74-69.99-26.67-43.13-28.99-98.65-7.21-143.29-6.82,22.18-8.44,45.52-4.38,68.19,12.08,67.52,67.7,105.7,111.66,117.89,12.8,3.55,25.94,5.35,39.05,5.35,59.85,0,105.11-36.63,121.8-52.37,4.1-3.87,8.01-7.91,11.71-12.13-23.34,41.99-60.81,72.16-104.61,82.4-11.23,2.62-23.1,3.95-35.27,3.95Z"/>
      <path class="cls-1" d="M624.43,251.14l-12.21-34.68h-75.31l-12.21,34.68h-22.68l58.66-163.97h28.01l58.66,163.97h-22.92ZM542.6,199.75h63.9l-31.81-90.93-32.09,90.93Z"/>
      <path class="cls-1" d="M880.26,253.09c-10.04,0-19.14-2.1-27.06-6.25-7.82-4.1-14.06-10.27-18.55-18.34-4.53-8.13-6.83-18.16-6.83-29.8v-76.12h21.6v71.97c0,12.78,3.31,22.8,9.85,29.77,6.58,7.03,15.62,10.6,26.86,10.6s20.3-3.56,26.96-10.58c6.62-6.97,9.98-17,9.98-29.78v-71.97h21.84v128.56h-21.84v-21.48l-5.35,6.74c-4.07,5.13-9.49,9.23-16.09,12.19-6.66,2.99-13.85,4.5-21.36,4.5Z"/>
      <path class="cls-1" d="M1033.04,253.34c-10.95,0-21.1-2.85-30.17-8.46-9.1-5.62-16.42-13.62-21.76-23.76-5.36-10.18-8.08-21.91-8.08-34.87s2.71-24.54,8.07-34.48c5.33-9.89,12.68-17.67,21.85-23.15,9.17-5.47,19.46-8.25,30.58-8.25,10.04,0,18.9,1.98,26.32,5.88,7.46,3.92,13.5,8.86,17.94,14.67l5.38,7.05v-25.41h22.08v128.56h-22.08v-26.08l-5.41,7.27c-4.43,5.96-10.58,11-18.27,15-7.68,3.99-16.58,6.01-26.46,6.01ZM1039.39,138.56c-7.65,0-14.89,1.9-21.5,5.64-6.64,3.76-12.08,9.32-16.15,16.52-4.07,7.18-6.13,15.77-6.13,25.53s2.05,18.45,6.11,25.86c4.07,7.45,9.54,13.22,16.26,17.15,6.7,3.92,13.91,5.9,21.42,5.9s14.91-1.94,21.53-5.78c6.63-3.84,12.06-9.52,16.14-16.9,4.06-7.34,6.11-16,6.11-25.75s-2.06-18.38-6.12-25.64c-4.07-7.28-9.5-12.92-16.13-16.76-6.63-3.83-13.87-5.78-21.53-5.78Z"/>
      <polygon class="cls-1" points="618.46 469.41 618.46 395.17 532.61 395.17 532.61 469.41 510.77 469.41 510.77 305.68 532.61 305.68 532.61 378.45 618.46 378.45 618.46 305.68 640.31 305.68 640.31 469.41 618.46 469.41"/>
      <path class="cls-1" d="M734.32,471.6c-12.28,0-23.41-2.79-33.07-8.28-9.64-5.47-17.3-13.29-22.79-23.26-5.51-10-8.3-21.8-8.3-35.06s2.71-25.08,8.07-35.09c5.32-9.94,12.89-17.71,22.51-23.1,9.67-5.42,20.97-8.17,33.58-8.17s23.05,2.67,32.48,7.92c9.39,5.24,16.8,12.69,22.04,22.15,5.26,9.52,7.93,20.66,7.93,33.1,0,3.83-.2,7.41-.59,10.68h-103.44l.24,3.23c.87,11.49,5.22,20.87,12.94,27.88,7.7,7,17.25,10.55,28.39,10.55,15.47,0,26.75-6.32,33.57-18.8h23.92c-4.06,9.97-10.64,18.36-19.59,24.99-10.08,7.47-22.83,11.26-37.9,11.26ZM733.1,356.09c-10.32,0-19.29,3.34-26.67,9.92-7.36,6.57-11.8,15.54-13.19,26.65l-.42,3.37h80.93l-.05-3.05c-.18-11.1-4.22-20.14-12.03-26.89-7.7-6.64-17.31-10.01-28.58-10.01Z"/>
      <path class="cls-1" d="M877.02,471.6c-10.94,0-21.09-2.85-30.17-8.46-9.1-5.63-16.42-13.62-21.76-23.76-5.36-10.18-8.08-21.91-8.08-34.87s2.71-24.54,8.07-34.47c5.33-9.89,12.68-17.67,21.85-23.15,9.17-5.47,19.46-8.25,30.58-8.25,10.04,0,18.89,1.98,26.32,5.88,7.46,3.92,13.5,8.86,17.94,14.67l5.38,7.05v-25.41h22.08v128.56h-22.08v-26.08l-5.41,7.27c-4.43,5.96-10.58,11-18.27,15-7.68,3.99-16.58,6.01-26.46,6.01ZM883.37,356.82c-7.65,0-14.89,1.9-21.5,5.64-6.64,3.76-12.08,9.31-16.15,16.52-4.07,7.18-6.13,15.77-6.13,25.53s2.05,18.45,6.1,25.86c4.07,7.45,9.54,13.22,16.26,17.15,6.71,3.92,13.91,5.9,21.42,5.9s14.91-1.94,21.53-5.78c6.63-3.84,12.06-9.52,16.14-16.9,4.06-7.34,6.11-16,6.11-25.75s-2.06-18.38-6.12-25.64c-4.08-7.28-9.5-12.92-16.13-16.76-6.63-3.83-13.87-5.78-21.53-5.78Z"/>
      <rect class="cls-2" x="985.47" y="294.69" width="21.84" height="174.72"/>
      <path class="cls-1" d="M1084.11,469.41c-11.73,0-20.76-2.71-26.83-8.05-5.97-5.24-8.99-14.09-8.99-26.32v-77.49h-15.87v-16.71h15.87v-33.46h22.08v33.46h32.72v16.71h-32.72v77.49c0,5.89,1.51,10.29,4.5,13.06,2.96,2.76,7.58,4.1,14.13,4.1h14.09v17.2h-18.98Z"/>
      <path class="cls-1" d="M1223.89,469.41v-72.22c0-12.77-3.31-22.79-9.84-29.77-6.59-7.03-15.63-10.6-26.86-10.6s-20.29,3.56-26.96,10.58c-6.62,6.98-9.98,17-9.98,29.79v72.22h-21.84v-174.72h21.84v67.11l5.31-6.41c4.39-5.3,10.05-9.45,16.82-12.34,6.84-2.92,14.46-4.4,22.63-4.4,9.7,0,18.46,2.1,26.04,6.23,7.5,4.09,13.5,10.25,17.84,18.32,4.38,8.15,6.6,18.19,6.6,29.84v76.37h-21.6Z"/>
      <path class="cls-1" d="M808.86,258.11c-2.1,0-4.07-.82-5.55-2.3l-59.46-59.47-1.92.92c-4,1.92-8.47,2.94-12.92,2.94-7.96,0-15.44-3.1-21.07-8.73-7.12-7.12-10.13-17.36-8.1-27.14l19.74,19.74,19.21-3.87,3.87-19.22-19.74-19.74c2-.42,4.05-.63,6.1-.63,7.95,0,15.43,3.1,21.06,8.73,9.1,9.1,11.37,22.44,5.79,33.98l-.93,1.92,59.47,59.47c3.06,3.06,3.06,8.04,0,11.1-1.48,1.48-3.45,2.3-5.55,2.3Z"/>
      <path class="cls-1" d="M721.5,253.12l-5.04-20.5-1.84-.39c-7.85-1.65-15.24-4.72-21.95-9.11l-1.58-1.04-18.08,10.96-8.96-8.98,10.96-18.09-1.04-1.58c-4.4-6.7-7.46-14.07-9.09-21.92l-.39-1.85-20.53-5.04v-12.68l20.53-5.04.39-1.85c1.63-7.84,4.69-15.22,9.09-21.94l1.04-1.58-10.96-18.08,8.96-8.96,18.08,10.96,1.58-1.04c6.72-4.4,14.1-7.46,21.94-9.09l1.85-.38,5.04-20.53h12.68l5.04,20.53,1.85.38c7.85,1.63,15.23,4.69,21.92,9.09l1.58,1.04,18.09-10.96,8.96,8.96-10.94,18.08,1.03,1.58c4.41,6.76,7.47,14.14,9.1,21.95l.39,1.85,20.52,5.04v12.68l-20.52,5.04-.39,1.85c-.39,1.87-.87,3.72-1.43,5.55l-8.91-8.91c2.81-16.64-2.57-33.57-14.57-45.59-9.85-9.85-22.96-15.28-36.9-15.28-3.87,0-7.73.43-11.46,1.28l-.41.09c-.36.08-.72.16-1.07.25-1.42.33-2.69.68-3.89,1.08-15.3,4.97-27.47,17.05-32.54,32.33-.68,1.98-1.24,4.09-1.65,6.24-.04.13-.07.27-.09.41-3.55,17.23,1.75,34.94,14.21,47.39,9.85,9.85,22.96,15.28,36.9,15.28,2.89,0,5.8-.25,8.68-.73l8.94,8.94c-1.83.56-3.69,1.04-5.57,1.43l-1.85.39-5.04,20.51h-12.68Z"/>
    </g>
  </g>
</svg>