<?xml version="1.0" encoding="UTF-8"?>
<svg id="Layer_2" data-name="Layer 2" xmlns="http://www.w3.org/2000/svg" viewBox="0 0 525.12 112.6">
  <defs>
    <style>
      .cls-1 {
        fill: #fff;
      }
    </style>
  </defs>
  <g id="Layer_1-2" data-name="Layer 1">
    <g>
      <polygon class="cls-1" points="204.89 74.08 173.53 31.86 173.53 74.08 162.53 74.08 162.53 14.99 173.47 14.99 204.91 57.41 204.91 14.99 215.75 14.99 215.75 74.08 204.89 74.08"/>
      <path class="cls-1" d="M248.74,74.52c-4.81,0-9.02-.96-12.53-2.85-3.47-1.87-6.19-4.54-8.1-7.93-1.91-3.4-2.88-7.42-2.88-11.94s.98-8.71,2.92-12.1c1.93-3.39,4.66-6.07,8.11-7.94,3.47-1.89,7.56-2.87,12.14-2.93,5.29,0,9.66,1.1,13,3.28,3.32,2.17,5.77,5.26,7.28,9.19,1.44,3.75,2.04,8.24,1.79,13.34h-34.19l.32,1.36c.28,1.18.67,2.29,1.16,3.29,1.14,2.34,2.78,4.18,4.89,5.46,2.09,1.27,4.52,1.91,7.23,1.91,4.49,0,8.48-1.56,11.9-4.65l5.57,5.49c-2.08,2.12-4.6,3.79-7.5,4.99-3.26,1.34-6.99,2.02-11.1,2.02h0ZM248.47,36.24c-2.5,0-4.71.66-6.58,1.95-1.85,1.28-3.31,3.05-4.32,5.27-.58,1.27-1,2.69-1.25,4.22l-.21,1.29h23.93l-.03-1.14c-.06-2.32-.57-4.36-1.5-6.06-.95-1.73-2.32-3.1-4.07-4.07-1.74-.97-3.75-1.46-5.97-1.46h0Z"/>
      <path class="cls-1" d="M294.57,74.7c-2.63,0-5.02-.5-7.1-1.47-2.06-.97-3.64-2.4-4.82-4.38-1.18-1.98-1.77-4.5-1.77-7.49v-23.27h-6.57v-6.8h6.57v-12.96h11.18v12.96h12.79v6.8h-12.79v21.08c0,2.42.5,4.12,1.53,5.19.97,1.01,2.27,1.53,3.86,1.53.1,0,.19,0,.29,0,.96,0,2.02-.16,3.16-.48.77-.21,1.58-.5,2.42-.85l2.19,7.4c-1.47.8-3.07,1.44-4.76,1.91-2,.55-4.08.84-6.18.84h0Z"/>
      <polygon class="cls-1" points="360.37 74.08 349.49 39.84 338.52 74.08 326.61 74.08 310.17 29.27 321.52 29.27 332.86 66.15 343.83 29.27 355.41 29.27 366.56 66.15 377.73 29.27 388.63 29.27 372.27 74.08 360.37 74.08"/>
      <path class="cls-1" d="M414.66,74.52c-4.82,0-9.11-.96-12.76-2.86-3.62-1.87-6.45-4.56-8.44-7.98-1.99-3.43-3.01-7.49-3.01-12.06s1.01-8.61,3-12c1.98-3.39,4.82-6.06,8.44-7.94,3.65-1.89,7.94-2.85,12.76-2.85s9.09.96,12.71,2.85c3.59,1.88,6.42,4.55,8.41,7.94,1.99,3.4,3,7.44,3,12s-1.01,8.62-3,12.06c-1.99,3.42-4.82,6.11-8.4,7.98-3.62,1.89-7.9,2.86-12.71,2.86h0ZM414.66,37.38c-2.54,0-4.81.62-6.76,1.83-1.95,1.21-3.48,2.94-4.57,5.14-1.07,2.16-1.61,4.67-1.61,7.45s.54,5.3,1.61,7.45c1.08,2.19,2.61,3.93,4.56,5.18,1.96,1.25,4.23,1.88,6.77,1.88s4.81-.63,6.73-1.89c1.92-1.24,3.43-2.98,4.51-5.17,1.07-2.17,1.61-4.67,1.61-7.45s-.54-5.28-1.6-7.45c-1.08-2.2-2.6-3.92-4.52-5.14-1.92-1.22-4.18-1.84-6.72-1.84h0Z"/>
      <path class="cls-1" d="M447.48,74.08V29.27h11.27v11.58l2.07-3.69c1.34-2.39,3.08-4.31,5.17-5.71,2.39-1.61,5.19-2.5,8.34-2.67v9.85c-.3-.01-.6-.02-.88-.02-2.49,0-4.75.45-6.73,1.33-2.56,1.14-4.55,2.81-5.91,4.97-1.36,2.15-2.06,4.74-2.06,7.69v21.49h-11.27Z"/>
      <polygon class="cls-1" points="511.82 74.08 500.08 54.05 492.65 61.83 492.65 74.08 481.38 74.08 481.38 11.31 492.65 11.31 492.65 49.21 511.49 29.27 523.75 29.27 507.58 46.2 525.12 74.08 511.82 74.08"/>
      <path class="cls-1" d="M105.72,16.25c-2,0-3.49-.76-4.53-2.33-1.04-1.57-1.3-3.48-.81-5.82.48-2.33,1.53-4.22,3.21-5.78,1.68-1.55,3.46-2.31,5.46-2.31,2.13,0,3.66.77,4.67,2.33,1.01,1.56,1.26,3.47.77,5.82-.49,2.34-1.53,4.23-3.18,5.79-1.65,1.55-3.47,2.3-5.58,2.3h0Z"/>
      <polygon class="cls-1" points="0 82.51 15.54 8.1 64.52 8.1 62.07 19.85 26.33 19.85 22.28 39.26 54.4 39.26 51.94 51.01 19.82 51.01 15.71 70.75 52.49 70.75 50.03 82.51 0 82.51"/>
      <polygon class="cls-1" points="59.85 82.51 76.34 3.5 89.22 3.5 72.72 82.51 59.85 82.51"/>
      <path class="cls-1" d="M97.23,25.92h12.87l-7.27,34.86-.03.03c-4.71,5.86-10.05,11.17-15.85,15.8l-.36.28,10.64-50.97h0Z"/>
      <path class="cls-1" d="M49.65,112.6c-.88,0-1.77-.02-2.65-.05-6.86-.27-24.55-2.29-40.52-15.15-.41-.33-.81-.66-1.21-1,1.34.7,2.69,1.37,4.06,2,.48.25,6.73,3.39,13.16,4.82,4.43.99,9.05,1.49,13.74,1.49,18.54,0,34.45-7.52,44.54-13.83,15.55-9.73,28.7-23.53,38.01-39.92,4.74-8.34,8.31-17.06,10.59-25.93l.02-.07.06-.03c5.66-2.97,10.91-7.65,15.19-13.55.94-1.29,1.85-2.67,2.7-4.08.7-1.19,1.36-2.39,1.95-3.57l.43-.87-.12.96c-2.35,18.41-9.08,37.5-19.45,55.22-12.95,22.13-31.46,38.97-52.11,47.44-4.85,1.99-14.93,6.12-28.37,6.12h0Z"/>
    </g>
  </g>
</svg>