<?xml version="1.0" encoding="UTF-8"?>
<svg id="Layer_2" data-name="Layer 2" xmlns="http://www.w3.org/2000/svg" viewBox="0 0 1308.67 484.43">
  <defs>
    <style>
      .cls-1 {
        fill: #fff;
        stroke-width: 0px;
      }
    </style>
  </defs>
  <g id="Layer_1-2" data-name="Layer 1">
    <g>
      <path class="cls-1" d="M193.89,323.49c-5.71,0-11.41-1.41-16.5-4.08-9-4.64-15.58-13.09-17.99-23.16-2.42-10.09-.39-20.63,5.57-28.9L350.67,5.89c2.76-3.77,6.83-5.89,11.22-5.89,4.97,0,9.67,2.64,12.28,6.88,2.53,4.11,2.67,9.06.39,13.58l-149.19,284.02c-6.16,11.73-18.22,19.02-31.48,19.02Z"/>
      <path class="cls-1" d="M195.23,484.43c-27.06,0-52.5-5.1-75.6-15.15-23.23-9.92-44.24-24.06-62.48-42.04-17.67-17.71-31.82-38.63-42.04-62.16-10.16-23.73-15.11-48.48-15.11-75.65s5.08-52.47,15.11-75.66c10.06-23.38,24.21-44.28,42.06-62.12,17.97-17.98,38.39-31.73,62.43-42.05,23.58-10.21,49.02-15.39,75.62-15.39,15.08,0,29.92,1.68,44.2,5.01l-26.67,37.51c-5.81-.61-11.7-.92-17.53-.92-28.56,0-53.96,6.76-77.64,20.65-23.11,13.77-41.71,32.47-55.32,55.6-13.7,23.07-20.66,49.11-20.66,77.37s6.95,54.34,20.67,77.44c13.93,23.32,32.53,42,55.29,55.52,23.68,13.94,49.07,20.71,77.66,20.71s53.75-6.77,77.41-20.7c22.67-13.49,41.35-32.16,55.52-55.49,13.76-23.1,20.73-49.15,20.73-77.48s-6.97-54.34-20.71-77.39c-2.24-3.78-4.58-7.37-7.13-10.93l20.96-39.87c13.66,15.56,24.76,33.2,33.04,52.52,10.06,23.18,15.16,48.63,15.16,75.67s-4.96,51.95-15.16,75.66c-10.16,23.49-24.3,44.41-42.01,62.17-18.15,17.88-39.08,32.03-62.16,42-23.71,10.2-48.46,15.16-75.66,15.16Z"/>
      <path class="cls-1" d="M412.76,484.43V195.46h41.6v43.08l7.64-6.86c12.48-11.21,27.11-20.17,43.48-26.64,15.43-5.88,30.91-9.02,47.16-9.51v41.62c-17.3.68-33.23,5.25-47.41,13.6-15.24,8.99-27.74,21.49-37.15,37.14-9.11,15.47-13.71,32.96-13.71,52.03v144.51h-41.6Z"/>
      <path class="cls-1" d="M690.28,484.43c-26.46,0-50.85-6.54-72.47-19.43-22.26-13.35-39.37-30.56-52.32-52.59-13.24-21.78-19.66-45.47-19.66-72.5s6.61-50.76,19.64-72.41c13.1-22.06,30.7-39.67,52.33-52.39,21.9-13.05,46.29-19.66,72.5-19.66,17.67,0,35.1,3.23,51.79,9.6,16.47,6.59,31.12,15.56,43.48,26.62l7.64,6.84V94.2h41.56v245.99c-.5,27.27-7.02,51.08-19.92,72.7-12.89,21.7-30.41,39.22-52.11,52.11-21.85,12.89-46.22,19.43-72.43,19.43ZM690.28,237.06c-19.07,0-36.57,4.6-52,13.69-15.32,9.04-27.82,21.54-37.16,37.15-9.13,15.51-13.75,33-13.75,52.02s4.62,36.51,13.73,52.03c9.15,15.53,21.66,28.02,37.18,37.14,15.79,9.29,33.28,14.01,51.99,14.01s36.2-4.72,51.99-14.01c15.62-9.34,28.11-21.83,37.17-37.12,9.12-15.54,13.75-33.05,13.75-52.05s-4.62-36.51-13.74-51.99c-9.27-15.42-21.76-27.91-37.14-37.15-15.46-9.11-32.95-13.71-52.03-13.71Z"/>
      <path class="cls-1" d="M1001.78,484.43c-24,0-45.5-5.16-65.72-15.79-20.11-10.56-36.56-24.55-50.29-42.78-13.42-17.8-22.3-38.45-26.41-61.37-1.17-8.68-1.84-16.59-2.08-24.71,0-6.78.69-14.87,2.1-24.58,4.06-22.41,12.87-42.98,26.14-60.98,13.35-17.98,30.34-32.36,50.5-42.73,20.55-10.79,42.05-16.03,65.76-16.03s45.5,5.39,65.73,16.01c20.2,10.42,36.64,24.39,50.27,42.76,13.39,17.8,22.26,38.36,26.38,61.13,1.12,7.87,1.83,16.25,2.08,24.7,0,6.74-.49,13.57-1.5,20.67h-244.07l1.57,5.78c6.14,22.65,18.02,40.66,36.32,55.05,18.26,14.3,39.52,21.55,63.22,21.55,14.07,0,27.69-2.72,40.49-8.1,11.3-5.14,21.01-11.44,29.01-18.78l25.45,32.43c-12.33,10.73-26.23,19.27-41.37,25.4-16.55,6.89-34.56,10.38-53.58,10.38ZM1001.78,237.06c-24,0-45.27,7.16-63.22,21.28-17.93,14.06-30.15,32.56-36.31,54.99l-1.59,5.79h202.2l-1.59-5.79c-6.08-22.14-18.29-40.63-36.29-54.97-17.97-14.13-39.23-21.29-63.2-21.29Z"/>
      <path class="cls-1" d="M1168.79,484.43V195.46h41.6v43.06l7.64-6.84c12.56-11.24,27.19-20.21,43.48-26.64,15.47-5.88,30.95-9.01,47.16-9.5v41.62c-17.26.68-33.19,5.25-47.41,13.6-15.3,9.06-27.79,21.56-37.12,37.15-9.13,15.43-13.75,32.93-13.75,52.02v144.51h-41.6Z"/>
    </g>
  </g>
</svg>