<?xml version="1.0" encoding="UTF-8"?>
<svg id="Layer_2" data-name="Layer 2" xmlns="http://www.w3.org/2000/svg" viewBox="0 0 1043.24 207.51">
  <defs>
    <style>
      .cls-1 {
        fill: #fff;
        stroke-width: 0px;
      }
    </style>
  </defs>
  <g id="Layer_1-2" data-name="Layer 1">
    <g>
      <g>
        <path class="cls-1" d="M331.25,166.24V35.61c5.63-1.28,11.8-2.21,18.51-2.78,6.71-.58,12.82-.86,18.32-.86,19.18,0,33.76,3.55,43.74,10.65,9.97,7.1,14.96,17.87,14.96,32.32,0,10.36-2.37,18.74-7.1,25.13-4.73,6.4-11.6,11.03-20.62,13.91-9.02,2.88-19.85,4.32-32.51,4.32h-13.81v47.96h-21.48ZM352.74,99.87h13.04c8.06,0,14.99-.7,20.81-2.11,5.82-1.41,10.23-3.93,13.24-7.58,3-3.64,4.51-8.79,4.51-15.44s-1.57-11.35-4.7-14.87c-3.13-3.52-7.38-5.98-12.76-7.38-5.37-1.41-11.25-2.11-17.65-2.11-3.45,0-6.56.13-9.3.38-2.75.26-5.15.51-7.19.77v48.34Z"/>
        <path class="cls-1" d="M472.84,168.35c-7.8,0-14.74-1.02-20.81-3.07-6.08-2.04-10.77-5.43-14.1-10.17-3.33-4.73-4.99-11-4.99-18.8s1.88-13.78,5.66-18.32c3.77-4.54,8.85-7.83,15.25-9.88,6.39-2.04,13.43-3.07,21.1-3.07,3.58,0,7.13.26,10.65.77,3.52.51,5.91,1.02,7.19,1.53v-4.41c0-3.84-.58-7.42-1.73-10.74-1.15-3.32-3.29-5.98-6.43-7.96-3.14-1.98-7.64-2.97-13.52-2.97s-11.29.42-15.44,1.25c-4.16.83-7.45,1.76-9.88,2.78l-2.69-17.07c2.69-1.02,6.71-2.01,12.09-2.97,5.37-.96,11.32-1.44,17.84-1.44,10.1,0,18.03,1.6,23.79,4.79,5.75,3.2,9.88,7.74,12.37,13.62,2.49,5.88,3.74,12.66,3.74,20.33v61.19c-3.33.77-8.54,1.73-15.63,2.88-7.1,1.15-15.25,1.73-24.46,1.73ZM474.75,151.67c3.84,0,7.32-.1,10.45-.29,3.13-.19,5.66-.48,7.58-.86v-28.2c-1.15-.51-3.1-.99-5.85-1.44-2.75-.45-5.92-.67-9.5-.67-3.84,0-7.58.38-11.22,1.15s-6.65,2.27-9.02,4.51c-2.37,2.24-3.55,5.53-3.55,9.88,0,6.01,1.88,10.17,5.66,12.47,3.77,2.3,8.92,3.45,15.44,3.45Z"/>
        <path class="cls-1" d="M535.14,166.24v-96.68c4.35-1.15,10-2.33,16.98-3.55,6.97-1.21,14.8-1.82,23.5-1.82,10.87,0,19.31,1.92,25.32,5.75,6.01,3.84,10.26,9.18,12.76,16.02,2.49,6.84,3.74,14.87,3.74,24.07v56.2h-20.72v-52.37c0-7.8-.71-14.03-2.11-18.7-1.41-4.67-3.74-8.02-7-10.07-3.26-2.04-7.9-3.07-13.91-3.07-3.84,0-7.42.19-10.74.58-3.33.38-5.69.77-7.1,1.15v82.48h-20.72Z"/>
        <path class="cls-1" d="M685.2,168.55c-10.36,0-19.34-2.08-26.95-6.23-7.61-4.15-13.46-10.13-17.55-17.93-4.09-7.8-6.14-17.07-6.14-27.81s1.76-19.82,5.27-27.62c3.52-7.8,8.63-13.91,15.35-18.32,6.71-4.41,14.8-6.62,24.27-6.62,5.24,0,9.85.67,13.81,2.01,3.96,1.34,7.29,2.78,9.97,4.32V20.84l20.72-3.45v145.79c-2.94.77-6.43,1.6-10.46,2.49-4.03.89-8.44,1.6-13.24,2.11-4.8.51-9.82.77-15.06.77ZM685.4,150.71c4.22,0,7.83-.19,10.84-.58,3-.38,5.34-.83,7-1.34v-60.42c-1.92-1.53-4.77-2.97-8.54-4.32-3.77-1.34-7.9-2.01-12.37-2.01-4.73,0-8.76.8-12.08,2.4-3.33,1.6-6.08,3.9-8.25,6.91-2.18,3.01-3.74,6.59-4.7,10.74-.96,4.16-1.44,8.73-1.44,13.72,0,7.29,1.18,13.52,3.55,18.7,2.37,5.18,5.79,9.18,10.26,11.99,4.48,2.81,9.72,4.22,15.73,4.22Z"/>
        <path class="cls-1" d="M779.33,168.35c-7.8,0-14.74-1.02-20.81-3.07-6.08-2.04-10.78-5.43-14.1-10.17-3.33-4.73-4.99-11-4.99-18.8s1.88-13.78,5.66-18.32c3.77-4.54,8.85-7.83,15.25-9.88,6.39-2.04,13.43-3.07,21.1-3.07,3.58,0,7.13.26,10.65.77,3.52.51,5.91,1.02,7.19,1.53v-4.41c0-3.84-.57-7.42-1.73-10.74-1.15-3.32-3.29-5.98-6.43-7.96-3.13-1.98-7.64-2.97-13.52-2.97s-11.29.42-15.44,1.25c-4.16.83-7.45,1.76-9.88,2.78l-2.69-17.07c2.69-1.02,6.71-2.01,12.08-2.97,5.37-.96,11.32-1.44,17.84-1.44,10.1,0,18.03,1.6,23.79,4.79,5.75,3.2,9.88,7.74,12.37,13.62,2.49,5.88,3.74,12.66,3.74,20.33v61.19c-3.33.77-8.54,1.73-15.63,2.88-7.1,1.15-15.25,1.73-24.46,1.73ZM781.25,151.67c3.84,0,7.32-.1,10.46-.29,3.13-.19,5.66-.48,7.58-.86v-28.2c-1.15-.51-3.1-.99-5.85-1.44-2.75-.45-5.92-.67-9.5-.67-3.84,0-7.58.38-11.22,1.15s-6.65,2.27-9.02,4.51c-2.37,2.24-3.55,5.53-3.55,9.88,0,6.01,1.88,10.17,5.66,12.47,3.77,2.3,8.92,3.45,15.44,3.45Z"/>
        <path class="cls-1" d="M851.67,45.78c-3.58,0-6.68-1.18-9.3-3.55-2.62-2.37-3.93-5.59-3.93-9.69s1.31-7.32,3.93-9.69c2.62-2.37,5.72-3.55,9.3-3.55s6.68,1.18,9.3,3.55c2.62,2.37,3.93,5.6,3.93,9.69s-1.31,7.32-3.93,9.69c-2.62,2.37-5.72,3.55-9.3,3.55ZM841.31,166.24v-100.13h20.72v100.13h-20.72Z"/>
        <path class="cls-1" d="M884.91,166.24V58.25c0-13.04,3.32-23.12,9.98-30.21,6.65-7.1,16.69-10.65,30.12-10.65,5.37,0,10,.48,13.91,1.44,3.9.96,6.74,1.89,8.54,2.78l-4.03,16.69c-1.92-.89-4.32-1.63-7.19-2.21-2.88-.58-6.04-.86-9.5-.86-7.8,0-13.27,1.98-16.4,5.95-3.13,3.96-4.7,9.78-4.7,17.46v7.48h37.41v17.26h-37.41v82.87h-20.72Z"/>
        <path class="cls-1" d="M966.51,202.11c-3.71,0-7.19-.42-10.46-1.25-3.26-.83-5.66-1.63-7.19-2.4l3.84-16.5c1.66.64,3.67,1.25,6.04,1.82,2.37.58,4.83.86,7.39.86,4.09,0,7.58-.67,10.45-2.01,2.88-1.34,5.4-3.45,7.58-6.33,2.17-2.88,4.09-6.62,5.75-11.22-4.99-9.46-9.82-19.5-14.48-30.12-4.67-10.61-9.05-21.71-13.14-33.28-4.09-11.57-7.8-23.43-11.13-35.58h21.87c1.28,5.63,2.91,11.64,4.89,18.03,1.98,6.4,4.12,12.98,6.43,19.76,2.3,6.78,4.8,13.56,7.48,20.33,2.69,6.78,5.37,13.24,8.06,19.38,3.07-8.31,5.88-16.72,8.44-25.22,2.56-8.5,4.95-17.1,7.19-25.8,2.24-8.7,4.44-17.52,6.62-26.47h21.1c-3.33,12.66-6.81,24.97-10.45,36.93-3.64,11.96-7.51,23.43-11.61,34.43-4.09,11-8.38,21.61-12.85,31.84-3.45,7.67-7,13.94-10.65,18.8-3.64,4.86-7.9,8.41-12.76,10.65-4.86,2.24-11,3.36-18.42,3.36Z"/>
      </g>
      <g>
        <path class="cls-1" d="M122.55,207.51c-13.07,0-24.9-3.43-34.2-9.93-13.81-9.64-21.32-26.37-18.69-41.63,2.29-13.31,11.83-25.13,25.51-31.63l.86-.4c9.93-4.56,20.59-6.87,31.65-6.87,18.57,0,38.14,6.29,58.16,18.7l2.93,1.81,1.6-3.05c8.99-17.11,11.45-34.01,13.24-46.35,3.52-24.26,1.71-48.89-5.39-73.29l22.59-6.99c8.14,27.78,10.23,55.91,6.2,83.66-2.06,14.21-5.18,35.69-17.93,57.98l-1.3,2.28,1.97,1.73c10.74,9.41,20.74,20.29,28.42,30.91l-19.46,13.43c-6.2-8.52-13.96-17.05-22.59-24.82l-2.37-2.13-2.15,2.36c-23.16,25.43-46.59,32.47-62.17,33.9-2.29.21-4.61.32-6.88.32ZM127.5,140.84c-7.71,0-14.98,1.54-21.62,4.59l-.61.28c-6.53,3.1-11.35,8.7-12.31,14.26-1.09,6.31,2.58,13.81,8.92,18.23,5.32,3.71,12.43,5.67,20.57,5.67h0c1.57,0,3.19-.08,4.81-.22,10.82-.99,27.37-5.96,44.73-24.01l2.81-2.92-3.48-2.06c-15.47-9.17-30.21-13.82-43.82-13.82Z"/>
        <path class="cls-1" d="M17.35,199.61c-8.14-27.78-10.23-55.91-6.2-83.66,2.06-14.21,5.18-35.69,17.93-57.98l1.3-2.28-1.97-1.73C17.67,44.56,7.68,33.68,0,23.06l19.46-13.43c6.2,8.52,13.96,17.05,22.59,24.82l2.37,2.13,2.15-2.36C69.73,8.79,93.16,1.75,108.74.32,111.05.11,113.36,0,115.63,0c13.06,0,24.88,3.43,34.19,9.93,13.81,9.64,21.32,26.37,18.69,41.63-2.29,13.3-11.83,25.13-25.51,31.63l-.87.41c-9.93,4.56-20.58,6.87-31.65,6.87h0c-18.57,0-38.13-6.29-58.15-18.7l-2.93-1.81-1.6,3.05c-8.99,17.1-11.44,34-13.24,46.33-3.52,24.27-1.71,48.91,5.39,73.3l-22.59,6.99ZM115.7,23.64c-1.57,0-3.18.07-4.79.22-10.83.99-27.37,5.96-44.73,24.01l-2.81,2.92,3.48,2.06c15.47,9.17,30.21,13.83,43.81,13.83h0c7.71,0,14.98-1.54,21.62-4.59l.61-.28c6.53-3.1,11.35-8.7,12.31-14.26,1.09-6.31-2.58-13.81-8.92-18.23-5.31-3.71-12.43-5.67-20.59-5.67Z"/>
      </g>
    </g>
  </g>
</svg>