<?xml version="1.0" encoding="UTF-8"?>
<svg id="Layer_2" data-name="Layer 2" xmlns="http://www.w3.org/2000/svg" viewBox="0 0 1283.34 409.29">
  <defs>
    <style>
      .cls-1 {
        fill: #fff;
        stroke-width: 0px;
      }
    </style>
  </defs>
  <g id="Layer_1-2" data-name="Layer 1">
    <g>
      <g>
        <path class="cls-1" d="M561.26,172.08c-1.18-.74-2.52-1.04-3.7.89-.59.89-1.18,3.55-1.48,4.29l-5.03-.3-4.44-35.83,5.48-.3c6.07,18.8,14.21,30.5,33.46,31.39,17.47-.15,22.65-12.58,21.76-19.99-.89-6.81-5.03-14.36-23.39-20.88-19.1-6.66-35.39-16.88-35.39-35.68,0-16.58,14.36-27.39,32.28-27.39,12.58,0,14.8,3.11,18.95,4,2.96.74,4.44,0,5.18-4h5.18l5.63,30.65-5.63.3c-4.89-13.18-12.58-24.58-29.17-23.69-13.03.74-18.21,8.74-16.88,16.43,1.04,6.96,9.03,13.18,22.06,18.36,25.61,10.07,37.01,21.32,37.01,38.79s-13.18,30.06-37.61,30.06c-15.4,0-19.99-4.89-24.28-7.11Z"/>
        <path class="cls-1" d="M630.47,171.93c8.44,0,9.92-2.67,9.92-12.58l.15-34.79c0-9.03-1.63-9.92-8.88-9.33l-.3-5.18,29.02-6.51v56.11c0,9.92,1.48,12.58,9.18,12.58v4.59h-39.09v-4.89ZM639.35,84.58c0-5.48,4.44-10.51,10.51-10.51,5.48,0,10.51,5.03,10.51,10.51,0,6.07-5.03,10.51-10.51,10.51-6.07,0-10.51-4.44-10.51-10.51Z"/>
        <path class="cls-1" d="M684.54,159.35l.15-34.79c0-9.03-1.63-9.92-8.88-9.33l-.3-5.18,29.02-6.51v12.88c9.62-7.11,14.07-11.55,20.14-12.29,16.43-2.22,27.54,9.48,27.54,24.87l-.15,31.09c0,9.92,1.48,12.58,9.18,12.58v4.59h-39.09v-4.89c8.44,0,9.92-2.67,9.92-12.58l.15-30.65c0-10.36-2.52-15.99-9.18-15.99-2.52,0-6.07,1.78-18.51,9.62v36.87c0,9.92,1.48,12.58,9.18,12.58v4.59h-39.09v-4.89c8.44,0,9.92-2.67,9.92-12.58Z"/>
        <path class="cls-1" d="M757.61,191.77l1.48-.89c10.51-6.51,12.73-12.58,12.73-28.13v-38.2c0-9.03-1.63-9.92-8.88-9.33l-.3-5.18,29.02-6.51v59.52c0,17.32-12.58,22.95-32.13,32.28l-1.92-3.55ZM781.89,74.07c5.48,0,10.51,5.03,10.51,10.51,0,6.07-5.03,10.51-10.51,10.51-6.07,0-10.51-4.44-10.51-10.51,0-5.48,4.44-10.51,10.51-10.51Z"/>
        <path class="cls-1" d="M816.06,111.23c8.88-6.37,17.77-7.4,22.5-7.4,10.51,0,26.65,4.74,26.65,20.43v33.61c0,7.11,2.37,9.33,5.92,9.33,3.11,0,5.18-1.92,6.81-4.29l2.96,2.07c-5.33,8.59-10.36,13.77-19.54,13.77-6.22,0-16.14-2.52-16.14-14.51v-.74c-4.29,9.48-14.66,15.4-24.13,15.4-10.36,0-16.29-6.07-16.29-14.51,0-6.66,4.29-12.14,13.47-17.17l26.65-14.51v-8.74c0-7.4-2.22-13.62-10.51-13.62-8.88,0-13.92,13.62-14.36,23.25l-15.69-2.81c0-7.55,2.52-13.18,11.7-19.54ZM844.79,150.17v-9.62l-9.33,5.03c-8.44,4.59-13.62,8.59-13.62,14.07,0,4.15,3.26,6.96,7.55,6.96,6.51,0,15.4-5.77,15.4-16.43Z"/>
        <path class="cls-1" d="M893.27,159.35l.15-35.68c0-7.85-1.63-9.03-8.88-8.44l-.3-5.18,29.02-6.51v22.95c6.51-14.36,14.36-20.73,21.02-20.73h2.07v20.73h-1.92c-10.81.15-15.55,3.26-21.17,8.74v24.43c0,9.92,1.48,12.58,9.18,12.58v4.59h-39.09v-4.89c8.44,0,9.92-2.67,9.92-12.58Z"/>
        <path class="cls-1" d="M991.28,159.2v-71.51c0-10.81-3.55-12.58-11.1-12.58v-4.89h63.66c3.55,0,4.44-.44,4.74-3.55h5.03l7.25,31.54-4.74.74c-7.55-15.99-17.17-21.91-31.68-21.91h-6.96c-3.55,0-5.77,1.18-5.77,5.33v37.01h11.7c7.25,0,14.51-5.48,14.51-17.17h5.18v40.12h-5.18c.15-7.7-7.25-16.88-14.51-16.88h-11.7v33.76c0,9.62,1.78,12.58,9.33,13.03v4.59h-40.86v-4.59c7.85,0,11.1-3.7,11.1-13.03Z"/>
        <path class="cls-1" d="M1062.4,171.93c8.44,0,9.92-2.67,9.92-12.58l.15-34.79c0-9.03-1.63-9.92-8.88-9.33l-.3-5.18,29.02-6.51v56.11c0,9.92,1.48,12.58,9.18,12.58v4.59h-39.09v-4.89ZM1071.28,84.58c0-5.48,4.44-10.51,10.51-10.51,5.48,0,10.51,5.03,10.51,10.51,0,6.07-5.03,10.51-10.51,10.51-6.07,0-10.51-4.44-10.51-10.51Z"/>
        <path class="cls-1" d="M1116.13,159.35l.15-67.37c0-9.03-1.63-9.92-8.88-9.33l-.3-5.18,29.02-9.48v91.65c0,9.92,1.48,12.58,9.18,12.58v4.59h-39.09v-4.89c8.44,0,9.92-2.67,9.92-12.58Z"/>
        <path class="cls-1" d="M1283.34,172.23v4.59h-39.09v-4.89c8.44,0,9.92-2.67,9.92-12.58l.15-30.65c0-10.36-2.07-14.36-8.59-14.36-3.41,0-10.96,2.81-19.1,8.44.44,2.07.59,3.55.59,6.22v30.65c0,9.92,1.48,12.58,9.18,12.58v4.59h-39.09v-4.89c8.44,0,9.92-2.67,9.92-12.58v-30.35c0-10.36-1.92-14.81-8.59-14.81-4.29,0-10.66,2.96-18.8,8.59v36.87c0,9.92,1.48,12.58,9.18,12.58v4.59h-39.09v-4.89c8.44,0,9.92-2.67,9.92-12.58l.15-34.79c0-9.03-1.63-9.92-8.88-9.33l-.3-5.18,29.02-6.51v12.88c9.77-8,15.4-11.55,21.62-12.29,9.48-1.33,19.25,4.59,22.95,13.03,11.55-8.59,13.77-11.84,23.54-13.03,11.55-1.48,26.5,7.11,26.35,24.43l-.15,31.09c0,9.92,1.48,12.58,9.18,12.58Z"/>
        <path class="cls-1" d="M561.26,327.31c-1.18-.74-2.52-1.04-3.7.89-.59.89-1.18,3.55-1.48,4.29l-5.03-.3-4.44-35.83,5.48-.3c6.07,18.8,14.21,30.5,33.46,31.39,17.47-.15,22.65-12.58,21.76-19.99-.89-6.81-5.03-14.36-23.39-20.88-19.1-6.66-35.39-16.88-35.39-35.68,0-16.58,14.36-27.39,32.28-27.39,12.58,0,14.8,3.11,18.95,4,2.96.74,4.44,0,5.18-4h5.18l5.63,30.65-5.63.3c-4.89-13.18-12.58-24.58-29.17-23.69-13.03.74-18.21,8.74-16.88,16.43,1.04,6.96,9.03,13.18,22.06,18.36,25.61,10.07,37.01,21.32,37.01,38.79s-13.18,30.06-37.61,30.06c-15.4,0-19.99-4.89-24.28-7.11Z"/>
        <path class="cls-1" d="M634.88,297.11c0-16.58,8.88-37.61,38.05-37.61,14.21,0,29.32,8.14,29.32,25.47l-13.47,2.96c-.44-7.4-8.29-21.47-19.69-21.47s-16.29,8.59-16.29,20.58c0,19.69,9.77,32.28,26.35,32.28,11.1,0,16.58-9.92,18.51-20.88h4.44c0,19.84-10.36,35.09-29.61,35.38-23.1.3-37.61-14.07-37.61-36.72Z"/>
        <path class="cls-1" d="M715.8,314.58l.15-67.37c0-9.03-1.63-9.92-8.88-9.33l-.3-5.18,29.02-9.48v48.27c10.81-7.11,15.4-11.55,22.06-12.29,11.84-1.48,26.8,7.4,26.65,24.73l-.15,30.94c0,9.92,1.48,12.58,9.18,12.58v4.59h-39.09v-4.89c8.44,0,9.92-2.67,9.92-12.58l.15-30.5c0-10.07-2.37-14.95-9.77-14.51-5.77.44-8.74,3.11-18.95,9.18v36.12c0,9.92,1.48,12.58,9.18,12.58v4.59h-39.09v-4.89c8.44,0,9.92-2.67,9.92-12.58Z"/>
        <path class="cls-1" d="M798.28,296.37c0-24.28,20.14-37.75,41.9-37.75s42.05,13.47,42.05,37.75-20.28,37.61-42.05,37.61-41.9-13.33-41.9-37.61ZM842.99,326.87c12.88,0,18.21-13.33,18.21-26.65,0-15.55-7.55-35.24-23.84-34.65-11.55.59-18.06,15.1-18.06,26.95,0,14.51,6.66,34.35,23.69,34.35Z"/>
        <path class="cls-1" d="M890.12,296.37c0-24.28,20.14-37.75,41.9-37.75s42.05,13.47,42.05,37.75-20.28,37.61-42.05,37.61-41.9-13.33-41.9-37.61ZM934.83,326.87c12.88,0,18.21-13.33,18.21-26.65,0-15.55-7.55-35.24-23.84-34.65-11.55.59-18.06,15.1-18.06,26.95,0,14.51,6.66,34.35,23.69,34.35Z"/>
        <path class="cls-1" d="M987.06,314.58l.15-67.37c0-9.03-1.63-9.92-8.88-9.33l-.3-5.18,29.02-9.48v91.65c0,9.92,1.48,12.58,9.18,12.58v4.59h-39.09v-4.89c8.44,0,9.92-2.67,9.92-12.58Z"/>
        <path class="cls-1" d="M1026.09,250.33c.65-.32.57-1.22.57-21.88,0-.81-.32-.97-.97-.97s-1.05.08-1.38.16c-2.67.65-3.32,1.78-4.78,5.67h-1.95l1.46-8.11h20.83l1.54,8.19-1.95-.08c-1.7-3.97-2.19-5.19-4.78-5.75-.49-.08-.81-.08-1.38-.08-.73,0-1.05.16-1.05.97,0,20.51,0,21.48.57,21.88.65.32.89.24,2.11.32v1.54h-11.19v-1.62c1.38.08,1.7,0,2.35-.24ZM1044.65,247.81v-18.08c0-2.19-1.46-2.84-3.65-2.76v-1.62h8.59l10.38,19.21,9.08-19.21h8.11l.08,1.62c-1.95-.08-3.4.24-3.4,2.76v18.08c0,2.27.97,2.67,2.92,2.84v1.46h-11.83l-.08-1.46c2.03-.16,3.49-.57,3.49-2.84v-15.24l-9.73,20.34h-1.05l-10.46-19.78v14.91c0,2.35.97,2.59,3.49,2.51v1.54h-9.56l-.08-1.54c1.86.08,3.73-.41,3.73-2.76Z"/>
      </g>
      <g>
        <polygon class="cls-1" points="0 211.16 0 282.73 143.18 282.73 0 211.16"/>
        <polygon class="cls-1" points="282.75 409.29 282.75 266.13 211.18 409.29 282.75 409.29"/>
        <polygon class="cls-1" points="0 375.49 0 409.29 110.45 409.29 216.35 303.38 0 375.49"/>
        <polygon class="cls-1" points="126.56 0 126.56 143.16 198.14 0 126.56 0"/>
        <polygon class="cls-1" points="33.8 0 0 0 0 110.45 105.93 216.35 33.8 0"/>
        <polygon class="cls-1" points="298.84 0 192.93 105.91 409.31 33.8 409.31 0 298.84 0"/>
        <polygon class="cls-1" points="409.31 198.14 409.31 126.56 266.13 126.56 409.31 198.14"/>
        <polygon class="cls-1" points="375.49 409.29 409.31 409.29 409.31 298.84 303.38 192.94 375.49 409.29"/>
        <polygon class="cls-1" points="174.48 131.79 131.79 174.45 131.79 234.84 174.48 277.5 234.85 277.5 277.52 234.83 277.52 174.45 234.83 131.79 174.48 131.79"/>
      </g>
    </g>
  </g>
</svg>