<?xml version="1.0" encoding="UTF-8"?>
<svg id="Layer_2" data-name="Layer 2" xmlns="http://www.w3.org/2000/svg" viewBox="0 0 1462.04 440.68">
  <defs>
    <style>
      .cls-1 {
        fill: #fff;
      }
    </style>
  </defs>
  <g id="Layer_1-2" data-name="Layer 1">
    <g>
      <g>
        <path class="cls-1" d="M442.95,195.31h-47.23v-17h114.82v17h-47.23v130.15h-20.36v-130.15h0Z"/>
        <path class="cls-1" d="M573.96,178.3h23.93l57.73,147.15h-20.99l-14.06-36.11h-69.27l-14.06,36.11h-20.99l57.73-147.15h-.02ZM614.05,272.14l-28.13-72.42-28.13,72.42h56.26Z"/>
        <path class="cls-1" d="M712.48,325.46l-45.13-147.15h20.99l34.64,119.44,31.07-119.44h21.62l31.07,119.65,34.63-119.65h20.99l-45.13,147.15h-21.83l-30.44-115.87-30.65,115.87h-21.83,0Z"/>
        <path class="cls-1" d="M932.05,178.3h23.93l57.73,147.15h-20.99l-14.06-36.11h-69.27l-14.06,36.11h-20.99l57.73-147.15h-.02ZM972.14,272.14l-28.13-72.42-28.13,72.42h56.26Z"/>
        <path class="cls-1" d="M1124.94,195.31h-75.15v-17h99.08v15.74l-79.35,114.4h83.54v17h-107.48v-15.53l79.35-114.61h.01Z"/>
        <path class="cls-1" d="M1185.65,178.3h20.57v88.16c0,29.39,17.84,43.24,36.11,43.24s36.11-13.85,36.11-43.24v-88.16h20.36v90.05c0,38.83-28.13,58.57-56.47,58.57s-56.68-19.73-56.68-58.57v-90.05h0Z"/>
        <path class="cls-1" d="M1344.49,178.3h19.52l77.67,113.14v-113.14h20.36v147.15h-19.52l-77.67-112.93v112.93h-20.36v-147.15h0Z"/>
      </g>
      <g>
        <path class="cls-1" d="M462.26,371.64c11.04,0,19.8,6.4,22.84,16.07l-6.93,2.36c-1.9-7.39-8-11.95-15.91-11.95-10.43,0-17.67,8.6-17.67,20.94s7.23,20.94,17.67,20.94c8.38,0,14.47-5.18,15.91-13.25l6.93,2.44c-2.44,10.35-11.19,17.21-22.84,17.21-14.77,0-25.2-11.27-25.2-27.33s10.43-27.41,25.2-27.41v-.02Z"/>
        <path class="cls-1" d="M517.42,404.38h-10.96v21.24h-7.46v-53.38h20.71c19.72,0,21.62,26.19,5.71,31.22l14.09,22.16h-8.45l-13.63-21.24h-.01ZM519.24,398.06c12.64,0,12.64-19.57,0-19.57h-12.79v19.57h12.79Z"/>
        <path class="cls-1" d="M551.33,372.25h35.03v6.17h-27.64v17.13h25.43v6.17h-25.43v17.74h27.64v6.17h-35.03v-53.38h0Z"/>
        <path class="cls-1" d="M618.82,372.25h8.68l20.94,53.38h-7.62l-5.1-13.1h-25.13l-5.1,13.1h-7.61l20.94-53.38h0ZM633.36,406.28l-10.2-26.27-10.2,26.27h20.41,0Z"/>
        <path class="cls-1" d="M667.67,378.42h-17.13v-6.17h41.65v6.17h-17.13v47.21h-7.39v-47.21Z"/>
        <path class="cls-1" d="M705.05,372.25h7.39v53.38h-7.39v-53.38Z"/>
        <path class="cls-1" d="M754.59,425.62h-8.76l-20.94-53.38h7.62l17.66,45.84,17.74-45.84h7.61l-20.94,53.38h.01Z"/>
        <path class="cls-1" d="M788.09,372.25h35.02v6.17h-27.64v17.13h25.43v6.17h-25.43v17.74h27.64v6.17h-35.02v-53.38h0Z"/>
        <path class="cls-1" d="M900.77,384.51l-6.85,2.28c-1.9-5.94-6.62-8.68-12.26-8.68-4.87,0-10.36,1.98-10.36,7.69,0,5.25,4.72,7,12.33,9.21,8.45,2.51,18.12,5.48,18.12,16.07,0,9.21-8,15.3-18.73,15.3s-19.19-6.32-21.85-15.91l6.78-2.36c2.21,7.61,7.69,11.88,15,11.88,6.47,0,11.27-3.43,11.27-8.83,0-6.02-5.94-7.92-13.63-10.13-8.83-2.59-16.83-5.56-16.83-14.77s7.16-14.62,17.36-14.62c9.59,0,17.21,5.25,19.64,12.87h0Z"/>
        <path class="cls-1" d="M929.1,378.42h-17.13v-6.17h41.65v6.17h-17.13v47.21h-7.39v-47.21Z"/>
        <path class="cls-1" d="M966.31,372.25h7.46v31.98c0,10.66,6.47,15.68,13.1,15.68s13.1-5.03,13.1-15.68v-31.98h7.39v32.66c0,14.09-10.2,21.24-20.48,21.24s-20.56-7.16-20.56-21.24v-32.66h0Z"/>
        <path class="cls-1" d="M1023.92,372.25h19.8c17.44,0,25.28,13.48,25.28,26.73s-7.84,26.65-25.28,26.65h-19.8v-53.38ZM1031.31,419.38h11.95c12.64,0,18.2-9.97,18.2-20.41s-5.56-20.48-18.2-20.48h-11.95v40.89Z"/>
        <path class="cls-1" d="M1083.36,372.25h7.39v53.38h-7.39v-53.38Z"/>
        <path class="cls-1" d="M1105.87,398.97c0-16.07,10.43-27.33,25.2-27.33s25.2,11.27,25.2,27.33-10.43,27.26-25.2,27.26-25.2-11.27-25.2-27.26ZM1148.66,399.05c0-12.49-7.23-20.94-17.59-20.94s-17.67,8.45-17.67,20.94,7.23,20.79,17.67,20.79,17.59-8.38,17.59-20.79Z"/>
      </g>
    </g>
    <g>
      <path class="cls-1" d="M512.31,47.87c-28.3,0-58.47,4.51-87.2,13.03-69.04,21.46-127.76,65.87-165.35,125.05-6.63,10.39-12.62,21.28-17.8,32.37-17.69,37.76-26.75,77.92-26.92,119.36-.14,35.1,6.15,69.64,18.72,103-9.12-66.97-2.08-131.38,20.69-187.62l2.78-6.87,2.78,6.87c3.39,8.38,6.46,17,9.12,25.64l.13.45c15.44,50.18,19.27,104.35,11.44,161.38,24.72-65.89,24.98-136.71.3-201.94-2.58-6.87-5.45-13.7-8.55-20.29l-.66-1.41.77-1.35c30.27-53.32,75.16-96.34,133.4-127.86,31.44-17.25,67.09-30.35,108.45-39.8h-2.1Z"/>
      <path class="cls-1" d="M243.32,169.37c-37.87-51.45-91.08-88.93-153.98-108.46-28.77-8.53-58.94-13.04-87.25-13.04H0c41.36,9.45,77,22.55,108.44,39.79,50.11,27.14,90.5,62.96,120.11,106.5,4.51-8.46,9.47-16.78,14.78-24.8h-.01Z"/>
      <path class="cls-1" d="M257.81,149.18c6.54-7.91,26.19-30.63,54-53.38,20.75-16.96,48.94-36.22,81.11-48.05-21.45,3.48-47.36,9.34-74.1,19.19-19.49,7.18-39.3,11.16-58.88,11.85l-2.14.07-2.14-.07c-19.58-.68-39.38-4.67-58.88-11.85-26.74-9.85-52.65-15.7-74.1-19.19,32.17,11.83,60.37,31.09,81.11,48.05,27.81,22.74,47.47,45.47,54,53.38h.02Z"/>
      <path class="cls-1" d="M257.81,60.76c16.75,0,30.38-13.63,30.38-30.38S274.56,0,257.81,0s-30.38,13.63-30.38,30.38,13.63,30.38,30.38,30.38Z"/>
    </g>
  </g>
</svg>