<?xml version="1.0" encoding="UTF-8"?>
<svg id="Layer_2" data-name="Layer 2" xmlns="http://www.w3.org/2000/svg" viewBox="0 0 741.32 271.69">
  <defs>
    <style>
      .cls-1 {
        fill: #fff;
        stroke-width: 0px;
      }
    </style>
  </defs>
  <g id="Layer_1-2" data-name="Layer 1">
    <g>
      <g>
        <polygon class="cls-1" points="134.29 192.76 134.29 242.68 46.61 242.68 0 196.08 0 49.91 49.92 49.91 49.92 175.38 67.29 192.76 134.29 192.76"/>
        <polygon class="cls-1" points="184.22 46.6 184.22 192.76 134.28 192.76 134.28 67.29 116.91 49.92 49.92 49.92 49.92 0 137.6 0 184.22 46.6"/>
      </g>
      <polygon class="cls-1" points="310.8 108.04 310.8 17.53 275.88 17.53 275.88 1 364.54 1 364.54 17.53 329.63 17.53 329.63 108.04 310.8 108.04"/>
      <path class="cls-1" d="m392.87,109.88c-11.4,0-20.74-3.71-27.76-11.02-7.03-7.33-10.59-17.19-10.59-29.32s3.51-22,10.45-29.33c7.01-7.31,16.3-11.02,27.61-11.02s20.93,3.86,27.74,11.46c6.84,7.64,10.31,17.82,10.31,30.27v3.59h-59.22l.12,1.11c.74,6.94,2.97,12.28,6.65,15.85,3.7,3.59,8.7,5.41,14.86,5.41,8.94,0,15.23-3.81,18.72-11.33h16.58c-2.09,7.22-6.17,13.07-12.14,17.41-6.33,4.6-14.17,6.93-23.3,6.93Zm-.46-67.69c-11.85,0-18.83,6.63-20.75,19.69l-.17,1.15h41.97l-.16-1.14c-.85-6.02-3.11-10.85-6.73-14.36-3.65-3.54-8.42-5.34-14.17-5.34Z"/>
      <path class="cls-1" d="m477.02,109.88c-11.3,0-20.59-3.71-27.61-11.02-6.93-7.23-10.44-17.09-10.44-29.32s3.51-22.25,10.44-29.48c6.82-7.22,16.11-10.87,27.61-10.87,10.02,0,18.31,2.68,24.63,7.96,6.04,5.05,9.73,11.89,10.98,20.36h-17.35c-1.03-4.43-3.1-7.9-6.15-10.35-3.23-2.58-7.3-3.9-12.11-3.9-6.32,0-11.35,2.32-14.95,6.89-3.55,4.5-5.34,11.02-5.34,19.38s1.83,14.88,5.42,19.38c3.66,4.57,8.66,6.88,14.87,6.88,4.91,0,9.11-1.39,12.5-4.13,3.21-2.6,5.27-6.31,6.12-11.03h17.32c-1.17,8.68-4.91,15.73-11.15,20.98-6.52,5.48-14.86,8.26-24.78,8.26Z"/>
      <path class="cls-1" d="m575.99,108.04v-48.16c0-10.62-5.33-16.01-15.85-16.01-5.16,0-9.6,1.88-13.2,5.59-3.59,3.7-5.41,8.85-5.41,15.32v43.26h-17.3V1h17.3v42.65l1.81-2.48c5.8-7.96,13.62-11.99,23.24-11.99,8.26,0,14.85,2.4,19.58,7.13,4.73,4.73,7.13,11.58,7.13,20.35v51.38h-17.3Z"/>
      <polygon class="cls-1" points="310.8 241.68 310.8 151.17 275.88 151.17 275.88 134.64 364.54 134.64 364.54 151.17 329.63 151.17 329.63 241.68 310.8 241.68"/>
      <path class="cls-1" d="m359.45,241.68v-77.02h16.68v13.09l1.92.4c4.26-9.9,11.67-14.71,22.67-14.71,1.34,0,2.6.06,3.75.19v15.88h-3.9c-7.58,0-13.51,1.97-17.61,5.86-4.12,3.91-6.21,9.69-6.21,17.19v39.12h-17.3Z"/>
      <path class="cls-1" d="m448.52,243.51c-11.4,0-20.74-3.71-27.76-11.02-7.03-7.33-10.59-17.19-10.59-29.32s3.51-22,10.45-29.33c7.01-7.31,16.3-11.02,27.61-11.02s20.92,3.86,27.74,11.46c6.84,7.64,10.31,17.82,10.31,30.27v3.59h-59.22l.12,1.11c.74,6.94,2.97,12.28,6.65,15.85,3.7,3.59,8.7,5.41,14.86,5.41,8.94,0,15.23-3.81,18.72-11.33h16.58c-2.09,7.22-6.17,13.07-12.14,17.41-6.33,4.6-14.17,6.93-23.3,6.93Zm-.46-67.69c-11.85,0-18.83,6.62-20.75,19.69l-.17,1.14h41.97l-.16-1.14c-.84-6.02-3.11-10.85-6.73-14.36-3.65-3.54-8.42-5.34-14.17-5.34Z"/>
      <path class="cls-1" d="m550,241.68v-48.16c0-10.62-5.33-16.01-15.86-16.01-5.16,0-9.6,1.88-13.2,5.59-3.59,3.7-5.41,8.85-5.41,15.32v43.26h-17.3v-77.02h16.68v13.56l1.82-2.66c5.8-8.45,13.82-12.74,23.83-12.74,8.26,0,14.85,2.4,19.58,7.13,4.73,4.73,7.13,11.58,7.13,20.35v51.38h-17.3Z"/>
      <path class="cls-1" d="m613.93,243.51c-10.56,0-19.01-3.69-25.11-10.97-6.25-7.34-9.42-17.22-9.42-29.37s3.16-22.29,9.41-29.52c6.01-7.19,14.46-10.83,25.12-10.83s18.14,3.93,23.53,11.67l1.82,2.62v-42.46h17.3v107.04h-16.68v-13.28l-1.83,2.69c-5.6,8.24-13.72,12.42-24.14,12.42Zm4.44-66.77c-6.52,0-11.76,2.45-15.56,7.27-3.75,4.75-5.65,11.4-5.65,19.76s1.88,14.83,5.6,19.18c3.76,4.4,9.01,6.63,15.62,6.63s11.92-2.34,15.77-6.94c3.71-4.56,5.59-11.11,5.59-19.48s-1.88-14.92-5.58-19.47c-3.76-4.61-9.07-6.95-15.78-6.95Z"/>
      <path class="cls-1" d="m682.11,271.69l12.76-31.46-29.78-75.58h18.66l6.5,18.17c3.03,8.89,7.05,21.15,11.93,36.42l.9,2.82.99-2.79c8.05-22.7,12.16-34.5,12.58-36.06l6.63-18.55h18.03l-29.46,73.36-13.23,33.68h-16.52Z"/>
    </g>
  </g>
</svg>