<?xml version="1.0" encoding="UTF-8"?>
<svg id="Layer_2" data-name="Layer 2" xmlns="http://www.w3.org/2000/svg" viewBox="0 0 658.36 199.72">
  <defs>
    <style>
      .cls-1 {
        fill: #fff;
      }
    </style>
  </defs>
  <g id="Layer_1-2" data-name="Layer 1">
    <g>
      <path class="cls-1" d="M.7,62.62l7.26-2.58v6.51c0,2.47,.62,4.99,1.87,7.56s3.84,3.86,7.77,3.86h14.37v-7.16c0-4.71,1.08-8.2,3.25-10.46,2.17-2.26,4.41-3.64,6.72-4.14,2.31-.5,4.53-.75,6.65-.75h7.91v22.52h5.9v4.17h-13.16l-.14-22.57c-4.03,0-6.67,1.26-7.94,3.79-1.26,2.53-1.9,5.01-1.9,7.44v11.33H17.6c-4.78,0-8.42-.98-10.93-2.95-2.51-1.97-4.14-4.08-4.87-6.34-.73-2.26-1.1-4.22-1.1-5.88v-4.35Zm15.83,30.04c-.78-.8-1.17-1.74-1.17-2.83s.39-2.02,1.17-2.79,1.72-1.15,2.81-1.15,2.03,.38,2.81,1.15c.78,.76,1.17,1.69,1.17,2.79s-.39,2.04-1.17,2.83c-.78,.8-1.72,1.19-2.81,1.19s-2.03-.4-2.81-1.19Zm9.36,0c-.78-.8-1.17-1.74-1.17-2.83s.39-2.02,1.17-2.79,1.72-1.15,2.81-1.15,2.03,.38,2.81,1.15,1.17,1.69,1.17,2.79-.39,2.04-1.17,2.83-1.72,1.19-2.81,1.19-2.03-.4-2.81-1.19Z"/>
      <path class="cls-1" d="M72.29,77.97c.62,0,1.11,.2,1.45,.61,.34,.41,.52,.89,.52,1.45,0,.59-.17,1.09-.52,1.5-.34,.41-.83,.61-1.45,.61h-10.07c-.47,0-.83-.21-1.1-.63-.26-.42-.4-.91-.4-1.47s.13-1.05,.4-1.45c.27-.41,.63-.61,1.1-.61h10.07Z"/>
      <path class="cls-1" d="M72.8,77.97c2.68,0,4.66-.76,5.92-2.27,1.26-1.51,1.9-3.85,1.9-7v-22.15h7.07v22.15c0,4.43-1.19,7.78-3.56,10.04-2.37,2.26-5.88,3.39-10.53,3.39h-1.87c-.41,0-.71-.2-.91-.61-.2-.41-.3-.91-.3-1.5s.1-1.05,.3-1.45c.2-.41,.51-.61,.91-.61h1.08Z"/>
      <path class="cls-1" d="M120.53,81.02c0,4.62-1.22,8.01-3.67,10.18s-6.25,3.25-11.4,3.25v-3.51c2.53,0,4.42-.73,5.69-2.18,1.26-1.45,1.96-3.66,2.08-6.62h-20.93v-13.81c0-2.75,.66-5.09,1.99-7.02,1.33-1.93,3.06-3.39,5.2-4.38,2.14-.98,4.42-1.47,6.86-1.47s4.74,.49,6.91,1.47c2.17,.98,3.92,2.44,5.27,4.35,1.34,1.92,2.01,4.24,2.01,6.95v12.78Zm-20.97-3.04h13.72v-9.64c0-1.84-.32-3.42-.96-4.73-.64-1.31-1.48-2.29-2.53-2.95-1.05-.66-2.16-.98-3.35-.98s-2.31,.33-3.37,.98c-1.06,.66-1.91,1.64-2.55,2.95-.64,1.31-.96,2.89-.96,4.73v9.64Z"/>
      <path class="cls-1" d="M152.25,77.97v4.17h-28.19v-4.17h16.15v-10.58c0-2.25-.62-4.02-1.87-5.31-1.25-1.29-2.82-1.94-4.73-1.94-1.12,0-2.29,.26-3.51,.77-1.22,.51-2.4,1.27-3.56,2.27l-2.48-4.17c3.31-2.4,6.84-3.61,10.58-3.61,1.03,0,1.97,.09,2.81,.26,.84,.17,1.48,.35,1.92,.54,3.46,1.41,5.68,3.2,6.65,5.38,.97,2.19,1.45,4.07,1.45,5.67v10.72h4.78Z"/>
      <path class="cls-1" d="M162.13,77.97c.62,0,1.11,.2,1.45,.61,.34,.41,.52,.89,.52,1.45,0,.59-.17,1.09-.52,1.5-.34,.41-.83,.61-1.45,.61h-10.07c-.47,0-.83-.21-1.1-.63-.27-.42-.4-.91-.4-1.47s.13-1.05,.4-1.45c.27-.41,.63-.61,1.1-.61h10.07Z"/>
      <path class="cls-1" d="M162.64,77.97c2.68,0,4.66-.76,5.92-2.27,1.26-1.51,1.9-3.85,1.9-7v-22.15h7.07v22.15c0,4.43-1.19,7.78-3.56,10.04-2.37,2.26-5.88,3.39-10.54,3.39h-1.87c-.41,0-.71-.2-.91-.61-.2-.41-.3-.91-.3-1.5s.1-1.05,.3-1.45c.2-.41,.51-.61,.91-.61h1.08Z"/>
      <path class="cls-1" d="M182.38,46.56h7.07v35.58h-7.07V46.56Z"/>
      <path class="cls-1" d="M239.73,76.05c0,1.31-.37,2.98-1.1,5.01-.73,2.03-2.2,3.91-4.4,5.64-2.2,1.73-5.29,2.6-9.25,2.6-4.34,0-7.65-.88-9.93-2.65-2.28-1.76-3.76-3.65-4.45-5.67-.69-2.01-1.03-3.72-1.03-5.13v-2.72l7.26-2.34v5.06c0,2.18,.47,4.28,1.43,6.27,.95,2,3.14,3,6.58,3,2.44,0,4.23-.59,5.38-1.76,1.15-1.17,1.85-2.38,2.08-3.63,.23-1.25,.35-2.54,.35-3.89v-20.41l7.07,.05v20.55Zm-18.82-21.94c-.78-.8-1.17-1.74-1.17-2.83s.39-2.02,1.17-2.79c.78-.76,1.71-1.15,2.81-1.15s2.03,.38,2.81,1.15,1.17,1.69,1.17,2.79-.39,2.04-1.17,2.83-1.72,1.19-2.81,1.19-2.03-.4-2.81-1.19Z"/>
      <path class="cls-1" d="M257.49,90.94c2.31,0,4.14-.73,5.5-2.18,1.36-1.45,2.04-3.66,2.04-6.62h-20.69v-13.81c0-2.75,.66-5.09,1.99-7.02,1.33-1.93,3.06-3.39,5.2-4.38,2.14-.98,4.43-1.47,6.86-1.47s4.74,.49,6.91,1.47c2.17,.98,3.93,2.45,5.27,4.4,1.34,1.95,2.01,4.28,2.01,7v9.64h4.12v4.17h-4.4c0,4-1.33,7.05-3.98,9.15-2.65,2.11-6.26,3.16-10.81,3.16v-3.51Zm7.82-12.97v-9.64c0-1.84-.32-3.42-.96-4.73-.64-1.31-1.48-2.29-2.53-2.95-1.04-.66-2.16-.98-3.35-.98s-2.31,.33-3.37,.98-1.91,1.64-2.55,2.95c-.64,1.31-.96,2.89-.96,4.73v9.64h13.72Z"/>
      <path class="cls-1" d="M277.44,77.97c2.69,0,4.66-.76,5.92-2.27,1.26-1.51,1.9-3.85,1.9-7v-22.15h7.07v22.15c0,4.43-1.19,7.78-3.56,10.04-2.37,2.26-5.88,3.39-10.54,3.39h-1.87c-.41,0-.71-.2-.91-.61-.2-.41-.3-.91-.3-1.5s.1-1.05,.3-1.45c.21-.41,.51-.61,.91-.61h1.08Z"/>
      <path class="cls-1" d="M309.84,77.97v4.17h-12.74V46.56h7.07v31.42h5.67Z"/>
      <path class="cls-1" d="M319.72,77.97c.62,0,1.11,.2,1.45,.61,.34,.41,.52,.89,.52,1.45,0,.59-.17,1.09-.52,1.5-.34,.41-.83,.61-1.45,.61h-10.07c-.47,0-.83-.21-1.1-.63-.27-.42-.4-.91-.4-1.47s.13-1.05,.4-1.45c.27-.41,.63-.61,1.1-.61h10.07Z"/>
      <path class="cls-1" d="M368.46,77.97v4.17h-49.25c-.56,0-1.01-.2-1.33-.61-.33-.41-.49-.91-.49-1.5s.16-1.05,.49-1.45c.33-.41,.77-.61,1.33-.61h7.16v-21.49h7.07v4.45l16.71-2.72c.88-.06,1.5-.09,1.87-.09,3.37,0,6.04,1.01,8.01,3.04,1.97,2.03,2.95,4.82,2.95,8.38v8.43h5.48Zm-12.55-8.43c0-2.46-.41-4.29-1.22-5.48-.81-1.19-2.04-1.78-3.7-1.78-.22,0-.58,.03-1.08,.09l-16.44,2.67v12.92h22.43v-8.43Z"/>
      <path class="cls-1" d="M369.21,77.97c2.68,0,4.66-.76,5.92-2.27,1.26-1.51,1.9-3.85,1.9-7v-22.15h7.07v22.15c0,4.43-1.19,7.78-3.56,10.04-2.37,2.26-5.88,3.39-10.54,3.39h-1.87c-.4,0-.71-.2-.91-.61-.2-.41-.3-.91-.3-1.5s.1-1.05,.3-1.45c.2-.41,.51-.61,.91-.61h1.08Z"/>
      <path class="cls-1" d="M388.95,46.56h7.07v35.58h-7.07V46.56Z"/>
      <path class="cls-1" d="M23.79,142.91v4.17h-1.87c-2.75,0-5.09-.39-7.02-1.17v.05c0,4.62-1.2,8.01-3.61,10.18-2.4,2.17-6.16,3.25-11.28,3.25v-3.51c2.68,0,4.66-.81,5.92-2.43s1.9-4.12,1.9-7.49v-25.56h7.07v13.25c0,3.15,.63,5.49,1.9,7,1.26,1.51,3.24,2.27,5.92,2.27h1.08Z"/>
      <path class="cls-1" d="M33.66,142.91c.62,0,1.11,.2,1.45,.61,.34,.41,.52,.89,.52,1.45,0,.59-.17,1.09-.52,1.5-.34,.41-.83,.61-1.45,.61h-10.07c-.47,0-.83-.21-1.1-.63-.26-.42-.4-.91-.4-1.48s.13-1.04,.4-1.45c.27-.41,.63-.61,1.1-.61h10.07Z"/>
      <path class="cls-1" d="M34.23,142.91c2.68,0,4.66-.76,5.92-2.27,1.26-1.51,1.9-3.85,1.9-7v-13.25h7.07v13.25c0,4.43-1.19,7.78-3.56,10.04-2.37,2.26-5.88,3.39-10.54,3.39h-2.01c-.56,0-1.01-.23-1.36-.68-.34-.45-.52-.98-.52-1.57,0-.53,.16-.98,.47-1.36,.31-.37,.78-.56,1.4-.56h1.22Zm4.54-28.94h2.06l-.05-2.62c-.03-1.62,.53-2.93,1.69-3.91s2.5-1.47,4.03-1.47c1.44,0,2.68,.44,3.75,1.31l-2.06,2.9c-.56-.38-1.09-.56-1.59-.56-.44,0-.79,.16-1.05,.47-.27,.31-.38,.75-.35,1.31l.05,2.58h6.32v3.61l-12.78,.05v-3.65Z"/>
      <path class="cls-1" d="M55.3,111.49h7.07v35.58h-7.07v-35.58Z"/>
      <path class="cls-1" d="M86.5,142.91v4.17h-1.87c-2.75,0-5.09-.39-7.02-1.17v.05c0,4.62-1.2,8.01-3.6,10.18-2.4,2.17-6.17,3.25-11.28,3.25v-3.51c2.68,0,4.66-.81,5.92-2.43s1.9-4.12,1.9-7.49v-25.56h7.07v13.25c0,3.15,.63,5.49,1.9,7,1.26,1.51,3.24,2.27,5.92,2.27h1.08Zm-15.4-28.4c-.78-.8-1.17-1.74-1.17-2.83s.39-2.02,1.17-2.79c.78-.76,1.72-1.15,2.81-1.15s2.03,.38,2.81,1.15c.78,.77,1.17,1.69,1.17,2.79s-.39,2.04-1.17,2.83-1.72,1.19-2.81,1.19-2.03-.4-2.81-1.19Z"/>
      <path class="cls-1" d="M121.76,142.91v4.17h-35.86c-.44,0-.8-.23-1.08-.68-.28-.45-.42-.96-.42-1.52,0-.53,.12-.99,.37-1.38,.25-.39,.62-.58,1.12-.58h21.82c-.87-1.15-1.42-2.29-1.64-3.39-.22-1.11-.33-2.52-.33-4.24v-2.95c0-2.25-.62-4.02-1.87-5.31-1.25-1.29-2.83-1.94-4.73-1.94-1.12,0-2.29,.26-3.51,.77-1.22,.52-2.4,1.27-3.56,2.27l-2.48-4.17c3.31-2.4,6.83-3.6,10.58-3.6,1.03,0,1.97,.09,2.81,.26,.84,.17,1.48,.35,1.92,.54,3.46,1.4,5.68,3.2,6.65,5.38,.97,2.19,1.45,4.07,1.45,5.67v3.09c0,.12-.02,.87-.05,2.25-.03,1.37,.45,2.62,1.45,3.72,1,1.11,2.5,1.66,4.5,1.66h2.86Zm-16.57,13.79c-.78-.8-1.17-1.74-1.17-2.83s.39-2.02,1.17-2.79c.78-.77,1.72-1.15,2.81-1.15s2.03,.38,2.81,1.15c.78,.76,1.17,1.69,1.17,2.79s-.39,2.04-1.17,2.83c-.78,.8-1.72,1.19-2.81,1.19s-2.03-.4-2.81-1.19Z"/>
      <path class="cls-1" d="M131.63,142.91c.62,0,1.11,.2,1.45,.61,.34,.41,.52,.89,.52,1.45,0,.59-.17,1.09-.52,1.5-.34,.41-.83,.61-1.45,.61h-10.07c-.47,0-.83-.21-1.1-.63-.27-.42-.4-.91-.4-1.48s.13-1.04,.4-1.45c.27-.41,.63-.61,1.1-.61h10.07Z"/>
      <path class="cls-1" d="M132.15,142.91c2.68,0,4.66-.76,5.92-2.27,1.26-1.51,1.9-3.85,1.9-7v-22.15h7.07v22.15c0,4.43-1.19,7.78-3.56,10.04-2.37,2.26-5.88,3.39-10.54,3.39h-1.87c-.41,0-.71-.2-.91-.61-.2-.41-.3-.9-.3-1.5,0-.56,.1-1.04,.3-1.45,.2-.41,.51-.61,.91-.61h1.08Z"/>
      <path class="cls-1" d="M164.55,142.91v4.17h-12.74v-35.58h7.07v31.42h5.67Z"/>
      <path class="cls-1" d="M162.89,146.4c-.3-.45-.45-.96-.45-1.52s.14-1.03,.42-1.4c.28-.37,.67-.56,1.17-.56h1.12c2.68,0,4.66-.76,5.92-2.27,1.26-1.51,1.9-3.85,1.9-7v-13.25l7.07-.14v13.39c0,4.43-1.19,7.78-3.56,10.04-2.37,2.26-5.88,3.39-10.53,3.39h-1.92c-.47,0-.85-.23-1.15-.68Zm6.48,10.3c-.78-.8-1.17-1.74-1.17-2.83s.39-2.02,1.17-2.79c.78-.77,1.72-1.15,2.81-1.15s2.03,.38,2.81,1.15c.78,.76,1.17,1.69,1.17,2.79s-.39,2.04-1.17,2.83-1.72,1.19-2.81,1.19-2.03-.4-2.81-1.19Z"/>
      <path class="cls-1" d="M245.3,133.64c0,1.72-.23,3.51-.68,5.38-.45,1.87-1.72,3.68-3.81,5.43-2.09,1.75-5.29,2.62-9.6,2.62h-18.73c-4.62,0-8-.87-10.14-2.62s-3.4-3.5-3.79-5.27c-.39-1.76-.59-3.61-.59-5.55v-3.98l7.12-2.67v6.65c0,1.34,.12,2.64,.35,3.89,.23,1.25,.92,2.46,2.06,3.63,1.14,1.17,2.93,1.76,5.36,1.76h17.56c2.43,0,4.23-.59,5.38-1.76,1.15-1.17,1.85-2.38,2.08-3.63,.23-1.25,.35-2.54,.35-3.89v-13.25h7.07v13.25Zm-26.45,23.01c-.78-.8-1.17-1.74-1.17-2.83s.39-2.02,1.17-2.79c.78-.77,1.72-1.15,2.81-1.15s2.03,.38,2.81,1.15c.78,.76,1.17,1.69,1.17,2.79s-.39,2.04-1.17,2.83c-.78,.8-1.72,1.19-2.81,1.19s-2.03-.4-2.81-1.19Z"/>
      <path class="cls-1" d="M262.72,142.91v4.17h-12.74v-35.58h7.07v31.42h5.67Z"/>
      <path class="cls-1" d="M261.11,146.44c-.33-.42-.49-.91-.49-1.48s.16-1.04,.47-1.45c.31-.41,.77-.61,1.36-.61h1.78l7.63-7.63v-14.89h7.07v13.25c0,3.15,.63,5.49,1.9,7,1.26,1.51,3.24,2.27,5.92,2.27h.75v4.17h-1.54c-3.28,0-6.04-.56-8.29-1.69s-3.86-2.75-4.82-4.87l-6.46,6.55h-3.93c-.56,0-1.01-.21-1.33-.63Zm6.53-31.93c-.78-.8-1.17-1.74-1.17-2.83s.39-2.02,1.17-2.79c.78-.76,1.72-1.15,2.81-1.15s2.03,.38,2.81,1.15c.78,.77,1.17,1.69,1.17,2.79s-.39,2.04-1.17,2.83c-.78,.8-1.72,1.19-2.81,1.19s-2.03-.4-2.81-1.19Zm9.18,0c-.78-.8-1.17-1.74-1.17-2.83s.39-2.02,1.17-2.79c.78-.76,1.72-1.15,2.81-1.15s2.03,.38,2.81,1.15c.78,.77,1.17,1.69,1.17,2.79s-.39,2.04-1.17,2.83c-.78,.8-1.72,1.19-2.81,1.19s-2.03-.4-2.81-1.19Z"/>
      <path class="cls-1" d="M297.37,142.91c.62,0,1.11,.2,1.45,.61,.34,.41,.52,.89,.52,1.45,0,.59-.17,1.09-.52,1.5-.34,.41-.83,.61-1.45,.61h-10.07c-.47,0-.83-.21-1.1-.63-.27-.42-.4-.91-.4-1.48s.13-1.04,.4-1.45c.27-.41,.63-.61,1.1-.61h10.07Z"/>
      <path class="cls-1" d="M345.5,142.91v4.17h-49.02c-.5,0-.91-.23-1.22-.68-.31-.45-.47-.98-.47-1.57,0-.53,.14-.98,.42-1.36,.28-.37,.7-.56,1.27-.56h36.71v-6.88c0-2.25-.62-4.01-1.87-5.29-1.25-1.28-2.86-1.92-4.82-1.92h-26.88l17.7-19.2h7.26l-12.64,14.47,15.73-.05c3.31,0,5.91,.7,7.79,2.11s3.19,3.02,3.91,4.85c.72,1.83,1.08,3.46,1.08,4.89v7.02h5.06Z"/>
      <path class="cls-1" d="M355.38,142.91c.62,0,1.11,.2,1.45,.61,.34,.41,.52,.89,.52,1.45,0,.59-.17,1.09-.52,1.5-.34,.41-.83,.61-1.45,.61h-10.07c-.47,0-.83-.21-1.1-.63-.27-.42-.4-.91-.4-1.48s.13-1.04,.4-1.45c.27-.41,.63-.61,1.1-.61h10.07Z"/>
      <path class="cls-1" d="M353.23,146.42c-.28-.44-.42-.94-.42-1.5s.14-1.04,.42-1.43c.28-.39,.67-.58,1.17-.58h2.25l7.63-7.63v-23.79h7.07v22.15c0,3.15,.63,5.49,1.9,7,1.26,1.51,3.24,2.27,5.92,2.27h1.22v4.17h-2.01c-3.28,0-6.04-.56-8.29-1.69s-3.86-2.75-4.82-4.87l-6.46,6.55h-4.4c-.5,0-.89-.22-1.17-.66Z"/>
      <path class="cls-1" d="M381.13,142.91c2.69,0,4.66-.76,5.92-2.27,1.26-1.51,1.9-3.85,1.9-7v-22.15h7.07v22.15c0,4.43-1.19,7.78-3.56,10.04-2.37,2.26-5.88,3.39-10.54,3.39h-1.87c-.41,0-.71-.2-.91-.61-.2-.41-.3-.9-.3-1.5,0-.56,.1-1.04,.3-1.45,.21-.41,.51-.61,.91-.61h1.08Z"/>
    </g>
    <rect class="cls-1" x="426.86" y="0" width="3" height="199.72"/>
    <g>
      <path class="cls-1" d="M658.36,160.79h0c0,3.96-3.45,7.01-7.39,6.57-33.92-3.79-67.9,7.77-92.61,32.36-24.14-24.03-57.99-36.24-92.62-32.36-3.93,.44-7.38-2.61-7.38-6.57h0c0-3.36,2.52-6.16,5.85-6.58,34.43-4.32,69.07,7.22,94.15,32.18,25.6-25.48,60.51-36.43,94.28-32.16,3.28,.41,5.72,3.25,5.72,6.56Z"/>
      <path class="cls-1" d="M658.36,134.12h0c0,3.96-3.45,7.01-7.39,6.57-34.02-3.8-68.01,7.88-92.61,32.36-24.76-24.64-58.81-36.13-92.61-32.36-3.94,.44-7.39-2.61-7.39-6.57h0c0-3.36,2.52-6.16,5.85-6.58,34.12-4.27,68.85,7,94.15,32.18,25.4-25.28,60.17-36.43,94.15-32.18,3.33,.42,5.85,3.22,5.85,6.58Z"/>
      <path class="cls-1" d="M658.36,107.45h0c0,3.95-3.43,7.01-7.35,6.58-33.06-3.69-67.3,7.13-92.65,32.36-24.67-24.56-58.69-36.15-92.61-32.36-3.94,.44-7.39-2.61-7.39-6.57h0c0-3.36,2.52-6.16,5.85-6.58,34.42-4.32,69.07,7.22,94.15,32.18,25.03-24.91,59.69-36.5,94.15-32.18,3.33,.42,5.85,3.22,5.85,6.58Z"/>
      <path class="cls-1" d="M598.36,60v33.93c-4.59,1.73-9.05,3.75-13.33,6.05V60c0-14.73-11.94-26.67-26.67-26.67s-26.67,11.94-26.67,26.67v39.98c-4.29-2.29-8.74-4.32-13.33-6.05V60c0-22.09,17.91-40,40-40s40,17.91,40,40Z"/>
      <path class="cls-1" d="M631.69,0l-6.67,13.33h-6.67V88.43c-4.54,.81-8.99,1.89-13.33,3.22V13.33h-93.33V91.65c-4.34-1.34-8.79-2.42-13.33-3.22V13.33h-6.67l-6.67-13.33h146.67Z"/>
    </g>
    <g>
      <path class="cls-1" d="M458.1,4.44c1.07,0,1.93,.18,2.6,.54s1.15,.79,1.44,1.29c.29,.5,.43,.99,.43,1.45,0,.69-.21,1.29-.62,1.8-.42,.5-.97,.88-1.65,1.14l3.4,4.93h-2.27l-3.18-4.58h-2.27v4.58h-2.27V4.42h4.4Zm-2.13,1.32v3.95h2.13c.45,0,.84-.1,1.17-.31s.59-.46,.76-.77c.18-.31,.26-.61,.26-.9,0-.34-.08-.66-.25-.96-.17-.3-.42-.54-.75-.73-.33-.19-.73-.28-1.2-.28h-2.13Z"/>
      <path class="cls-1" d="M458.36,1.89c4.48,0,8.11,3.63,8.11,8.11s-3.63,8.11-8.11,8.11-8.11-3.63-8.11-8.11,3.63-8.11,8.11-8.11m0-1.89c-5.51,0-10,4.49-10,10s4.49,10,10,10,10-4.49,10-10-4.49-10-10-10h0Z"/>
    </g>
  </g>
</svg>