<?xml version="1.0" encoding="UTF-8"?>
<svg id="Layer_2" data-name="Layer 2" xmlns="http://www.w3.org/2000/svg" viewBox="0 0 1679.31 500.77">
  <defs>
    <style>
      .cls-1 {
        fill: #f5f5f5;
      }
    </style>
  </defs>
  <g id="Layer_1-2" data-name="Layer 1">
    <g id="Layer_2-2" data-name="Layer 2">
      <g id="uuid-9c488d07-5544-4b14-a455-418e2cb0a68f" data-name="Layer 1-2">
        <path class="cls-1" d="M1616.41,136.5v-3.72h26.65v3.72h-11.21v29.96h-4.28v-29.96h-11.16Z"/>
        <path class="cls-1" d="M1646.55,166.46v-33.68h5.41l10.93,27.98h.09l10.82-27.98h5.52v33.68h-4.11v-27.73h-.09c-.6,1.77-1.1,3.17-1.51,4.24l-9.24,23.46h-3.25l-9.24-23.46-1.51-4.24h-.09v27.73h-3.72Z"/>
        <path class="cls-1" d="M695.95,336.65c-17,0-32.08-3.49-44.81-10.38-12.71-6.81-23-17.14-29.76-29.87-7.05-12.97-10.62-28.82-10.62-47.11s3.7-33.89,10.99-47.36c6.95-13.12,17.37-24.04,30.15-31.59,12.73-7.51,27.63-11.32,44.3-11.33,10.54,0,19.32,1.57,26.08,4.67,6.49,2.93,12.62,6.62,18.23,10.99,2.01,1.51,3.73,2.24,5.26,2.24,1.26,0,2.35-.5,3.25-1.48,1.78-1.95,2.98-6.21,3.67-13.01h4.08c-.31,6.17-.54,13.63-.7,22.2-.16,8.84-.24,20.67-.24,35.16h-4.08c-.64-6.2-1.69-12.42-3.11-18.5-1.17-4.96-2.99-9.74-5.43-14.21-2.54-4.39-5.88-8.15-9.92-11.18-4.05-4.07-9.04-7.24-14.44-9.19-5.43-1.97-11.12-2.97-16.91-2.97h-.17c-8.91,0-16.6,2.39-22.88,7.1-6.54,5.05-11.8,11.68-15.23,19.19-4.03,8.61-6.88,17.73-8.46,27.11-1.81,10.26-2.71,20.76-2.68,31.19-.04,10.52.91,21.1,2.81,31.44,1.64,9.35,4.61,18.41,8.84,26.92,3.61,7.39,9.02,13.89,15.65,18.78,6.49,4.57,14.1,6.99,22.02,6.99.3,0,.59,0,.89,0,5.64-.04,11.18-1.1,16.46-3.13,5.32-1.91,10.27-5.03,14.31-9.01,6.25-4.67,10.79-11.07,13.14-18.51,2.24-7.1,3.96-16.62,5.1-28.3h4.06c0,15.02.08,27.32.24,36.59.15,9.07.39,16.86.7,23.18h-4.03c-.67-6.79-1.79-11-3.41-12.87-.84-.97-1.92-1.46-3.24-1.46-1.53,0-3.32.67-5.47,2.03-6.02,4.22-12.41,7.92-19.02,11.03-6.6,3.1-15.21,4.67-25.6,4.67Z"/>
        <path class="cls-1" d="M849.79,333.21c-3.69-.16-8.9-.35-15.49-.57-7.12-.24-14.66-.36-22.43-.37-6.49,0-13.13.12-19.76.37-6.1.23-10.89.42-14.27.57v-3.51c5.47-.12,9.45-1.42,11.83-3.89,2.53-2.62,3.76-7.34,3.76-14.43v-76.7c0-7.42-1.15-13.02-3.42-16.62-2.24-3.56-6.35-5.44-12.2-5.59v-3.47c4.9.43,9.7.65,14.3.65,6.84,0,13.3-.29,19.19-.86,5.21-.47,10.44-1.27,15.56-2.36v25.43l1.53-3.45c1.91-4.3,4.48-8.24,7.66-11.72,3.1-3.44,6.78-6.2,10.95-8.22,4.13-1.92,8.72-2.94,13.29-2.94h.53c5.01,0,9.12,1.06,12.22,3.15,3.03,1.99,5.41,4.78,6.91,8.07,1.49,3.28,2.25,6.77,2.24,10.38,0,5.78-1.69,10.56-5.03,14.2-3.2,3.48-7.75,5.47-12.48,5.47-.22,0-.43,0-.65-.01-5.49,0-9.77-1.37-12.77-4.06-3.01-2.72-4.65-6.61-4.49-10.67-.13-3.91.89-7.65,2.96-10.9,1.98-2.94,4.49-5.45,7.44-7.44l1.41-.96-1.64-.48c-1.06-.31-2.15-.46-3.25-.46-1.36,0-2.7.24-3.98.7-3.27.55-6.4,1.9-9.05,3.91-2.88,2.11-5.33,4.71-7.29,7.71-2,3.09-3.58,6.44-4.71,9.94-1.12,3.33-1.71,6.82-1.74,10.35v64.54c0,8.03,2.04,13.58,6.05,16.48,3.8,2.74,9.46,4.17,16.84,4.26v3.5Z"/>
        <path class="cls-1" d="M948.73,336.67c-11.36,0-21.61-2.18-30.46-6.49-8.81-4.29-15.81-11.26-20.82-20.72-5.02-9.51-7.57-22.38-7.57-38.25s2.55-28.77,7.58-38.35c5.01-9.54,12.02-16.56,20.83-20.84,8.86-4.31,19.1-6.49,30.44-6.49s22.04,2.18,30.82,6.49c8.73,4.29,15.66,11.3,20.58,20.84,4.95,9.58,7.46,22.48,7.46,38.36s-2.51,28.74-7.46,38.25c-4.93,9.46-11.86,16.43-20.59,20.72-8.76,4.31-19.11,6.49-30.76,6.49h-.06ZM948.73,208.8c-6.8,0-12.54,5.03-17.05,14.96-4.42,9.72-6.65,25.69-6.64,47.46,0,21.77,2.24,37.69,6.65,47.33,4.5,9.84,10.24,14.84,17.05,14.85,6.97,0,12.74-5,17.16-14.85,4.33-9.65,6.52-25.57,6.52-47.33s-2.19-37.73-6.52-47.45c-4.42-9.93-10.19-14.97-17.16-14.97Z"/>
        <path class="cls-1" d="M1082.23,336.69c-9.52,0-18.99-2.37-27.38-6.86-8.34-4.52-15.12-11.62-20.13-21.09-5.03-9.5-7.58-21.95-7.57-37.01,0-14.42,2.63-26.71,7.82-36.52,5.17-9.79,12.32-17.26,21.25-22.2,9.03-4.9,19.24-7.49,29.52-7.49.36,0,.71,0,1.06,0h.76c5.57,0,11.12.68,16.52,2.03,4.51,1.09,8.82,2.82,12.82,5.15,3.86,2.31,7.18,5.55,9.59,9.36,2.32,3.86,3.5,8.3,3.41,12.83.17,5.01-1.72,9.9-5.17,13.47-3.4,3.48-7.88,5.24-13.31,5.24s-9.84-1.57-13.08-4.66c-3.24-3.08-4.89-7.3-4.89-12.57-.14-4.65,1.51-9.08,4.66-12.48,2.91-3.24,6.65-5.56,10.83-6.71l1.23-.34-.84-.96c-1.67-1.91-3.79-3.4-6.15-4.33-2.76-1.17-5.7-1.76-8.71-1.76h-.71c-4.82,0-9.58,1.62-13.39,4.55-4.18,3.33-7.59,7.64-9.86,12.46-2.82,5.85-4.85,12.06-6.03,18.46-1.43,7.58-2.13,15.33-2.07,23.04,0,12.56,1.62,22.58,4.81,29.79,3.22,7.26,7.43,12.46,12.51,15.46,4.76,2.9,10.23,4.46,15.81,4.5,3.5-.05,6.97-.55,10.33-1.49,4.21-1.24,8.08-3.25,11.49-5.99,4.19-3.39,7.7-7.45,10.45-12.08l2.76.99c-1.96,6.08-4.79,11.81-8.42,17.07-4.01,5.92-9.39,10.93-15.57,14.5-6.35,3.72-14.25,5.61-23.47,5.61-.29,0-.57,0-.85,0Z"/>
        <path class="cls-1" d="M1143.93,329.72c5.48-.12,9.46-1.42,11.83-3.89,2.52-2.62,3.75-7.34,3.76-14.43v-138.57c0-7.43-1.15-13.03-3.41-16.62-2.24-3.56-6.34-5.44-12.2-5.6v-3.47c4.83.43,9.57.65,14.11.65h.2c6.65,0,13.06-.29,19.07-.86,5.24-.46,10.49-1.25,15.63-2.34v86.3l1.52-3.16c3.96-8.24,9.37-14.05,16.06-17.28,6.86-3.22,14.5-4.92,22.08-4.92.27,0,.54,0,.82,0,6.86,0,12.41.84,16.52,2.5,3.73,1.4,7.07,3.72,9.68,6.72,2.84,3.31,4.84,7.32,5.79,11.58,1.2,4.8,1.81,11.37,1.81,19.56v65.51c0,7.13,1.23,11.85,3.76,14.44,2.38,2.43,6.36,3.74,11.82,3.88v3.51c-3.06-.16-7.49-.34-13.17-.56-6.23-.24-12.35-.36-18.17-.37-6.32,0-12.51.12-18.42.37-5.08.2-9.35.39-12.45.56v-3.5c4.73-.13,8.04-1.42,10.09-3.94,2.09-2.57,3.11-7.27,3.11-14.38v-75.74c.06-3.63-.36-7.26-1.25-10.79-.71-2.94-2.41-5.61-4.79-7.5-2.33-1.81-5.64-2.73-9.86-2.73h-.15c-4.39,0-8.66,1.27-12.35,3.66-3.86,2.53-6.99,6.05-9.05,10.17-2.31,4.63-3.48,9.81-3.37,14.99v67.93c0,7.1,1.02,11.81,3.11,14.38,1.97,2.48,5.37,3.81,10.09,3.94v3.5c-2.89-.16-6.95-.34-12.08-.56-5.66-.24-11.49-.36-17.32-.37-6.32,0-12.77.12-19.16.37-5.85.23-10.44.42-13.66.57v-3.5Z"/>
        <path class="cls-1" d="M1355.18,336.67c-11.36,0-21.61-2.18-30.46-6.49-8.8-4.29-15.81-11.26-20.82-20.72-5.03-9.51-7.58-22.37-7.58-38.23s2.55-28.76,7.58-38.35c5.01-9.54,12.02-16.56,20.83-20.84,8.86-4.31,19.1-6.5,30.45-6.51,11.67,0,22.04,2.18,30.82,6.49,8.73,4.29,15.66,11.3,20.58,20.84,4.95,9.58,7.46,22.48,7.46,38.36s-2.51,28.74-7.46,38.25c-4.93,9.46-11.85,16.42-20.58,20.72-8.76,4.31-19.12,6.49-30.77,6.49h-.06ZM1355.18,208.8c-6.8,0-12.54,5.03-17.05,14.96-4.42,9.72-6.65,25.69-6.65,47.46,0,21.77,2.24,37.69,6.65,47.33,4.5,9.84,10.24,14.84,17.05,14.85,6.97,0,12.74-5,17.17-14.85,4.33-9.64,6.52-25.57,6.53-47.33,0-21.76-2.2-37.73-6.53-47.45-4.43-9.93-10.2-14.97-17.17-14.97Z"/>
        <path class="cls-1" d="M1488.78,336.68c-9.52,0-18.99-2.37-27.39-6.86-8.34-4.52-15.11-11.62-20.13-21.09-5.03-9.5-7.58-21.95-7.58-37.01s2.63-26.71,7.83-36.52c4.75-9.39,12.09-17.06,21.25-22.2,9.03-4.89,19.23-7.47,29.51-7.47.33,0,.65,0,.98,0h.76c5.56,0,11.12.68,16.52,2.03,4.51,1.09,8.82,2.82,12.81,5.15,3.87,2.3,7.19,5.54,9.6,9.36,2.31,3.86,3.49,8.31,3.4,12.83.17,5-1.7,9.89-5.13,13.46-3.3,3.33-7.9,5.25-12.61,5.25-.22,0-.44,0-.67-.01-5.47,0-9.87-1.57-13.11-4.66-3.23-3.08-4.87-7.31-4.89-12.57-.14-4.65,1.52-9.08,4.67-12.48,2.91-3.24,6.64-5.56,10.82-6.72l1.22-.34-.83-.96c-1.67-1.91-3.79-3.41-6.16-4.33-2.75-1.17-5.69-1.76-8.7-1.76h-.71c-4.82,0-9.58,1.62-13.41,4.55-4.18,3.34-7.58,7.64-9.85,12.47-2.83,5.85-4.86,12.06-6.03,18.46-1.43,7.58-2.12,15.33-2.07,23.04,0,12.56,1.62,22.58,4.81,29.79,3.22,7.26,7.42,12.46,12.5,15.46,4.78,2.91,10.27,4.47,15.87,4.5,3.5-.05,6.97-.55,10.33-1.49,4.21-1.24,8.07-3.25,11.49-5.99,4.19-3.39,7.7-7.45,10.45-12.08l2.76.99c-1.96,6.08-4.79,11.81-8.42,17.07-4.01,5.91-9.4,10.92-15.57,14.5-6.35,3.72-14.25,5.61-23.47,5.61-.29,0-.57,0-.85,0Z"/>
        <path class="cls-1" d="M1613.57,336.67c-11.35,0-21.6-2.18-30.46-6.49-8.82-4.29-15.83-11.26-20.82-20.72-5.03-9.51-7.58-22.37-7.58-38.23s2.55-28.76,7.58-38.35c5.01-9.54,12.02-16.56,20.83-20.84,8.86-4.31,19.1-6.5,30.45-6.51,11.67,0,22.04,2.18,30.82,6.49,8.73,4.29,15.66,11.3,20.58,20.84,4.95,9.58,7.46,22.48,7.46,38.36s-2.51,28.74-7.46,38.25c-4.93,9.46-11.85,16.42-20.58,20.72-8.76,4.31-19.12,6.49-30.77,6.49h-.06ZM1613.57,208.8c-6.8,0-12.54,5.03-17.04,14.96-4.41,9.72-6.64,25.68-6.64,47.45s2.24,37.69,6.65,47.33c4.5,9.84,10.24,14.84,17.04,14.85,6.97,0,12.74-5,17.17-14.85,4.33-9.65,6.52-25.57,6.52-47.33s-2.19-37.73-6.52-47.45c-4.42-9.93-10.2-14.97-17.17-14.97Z"/>
        <path class="cls-1" d="M114.93,303.79c-25.65-.89-48.58-6.07-68.18-15.4-19.34-9.25-35.06-22.02-46.75-37.98,11.65-15.98,27.38-28.75,46.75-37.98,1.37-.65,2.77-1.27,4.09-1.84,1.72-.77,3.3-1.43,4.85-2.02,17.44-6.89,37.34-10.77,59.21-11.55,3.02,11.54,8.87,22.22,16.99,30.98,7.95,8.82,18.25,16.35,30.64,22.41-9.76,4.69-18.69,10.82-26.59,18.28-.77.73-1.53,1.49-2.25,2.25l-.5.53c-.47.5-.87.92-1.31,1.41-8.09,8.71-13.93,19.38-16.94,30.91Z"/>
        <path class="cls-1" d="M90.96,428.82c-5.89,0-11.82-.46-17.65-1.38-3.03-19.54-.94-39.7,6.21-59.94.51-1.4,1.01-2.79,1.58-4.17l.47-1.14c.5-1.24,1.01-2.49,1.57-3.74,7.48-17.18,18.82-34.01,33.72-50.06,10.29,6.05,21.97,9.48,33.91,9.94,1.43.08,2.92.12,4.4.12,10.54,0,21.65-2,33.1-5.95-3.57,10.22-5.54,20.87-5.88,31.73v3.14c0,1.04,0,1.81.1,2.74.45,11.9,3.85,23.56,9.86,33.84-18.8,17.49-38.68,30.02-59.1,37.27-14.23,5.05-28.46,7.61-42.27,7.61Z"/>
        <path class="cls-1" d="M116.79,192.41c-17.47-18.79-30-38.67-37.25-59.09-7.21-20.3-9.3-40.45-6.22-59.92,5.83-.9,11.75-1.36,17.62-1.36,13.86,0,28.1,2.55,42.31,7.57,1.3.43,2.65.94,4.17,1.57,1.94.76,3.49,1.4,4.9,2.03,17.19,7.46,34.01,18.79,50.02,33.68-.23.38-.46.77-.67,1.15-5.6,9.98-8.8,21.32-9.24,32.78-.63,11.85,1.33,24.45,5.83,37.49-10.21-3.57-20.85-5.55-31.71-5.87h-3.14c-.89,0-1.8,0-2.74.08-11.91.47-23.58,3.88-33.86,9.9Z"/>
        <path class="cls-1" d="M250.32,162.57c-4.69-9.75-10.82-18.68-18.26-26.59-.77-.78-1.5-1.51-2.24-2.23-.75-.73-1.3-1.23-1.96-1.84-8.4-7.76-18.68-13.51-29.71-16.62,0,0-.92-.26-1.21-.34.91-25.65,6.09-48.58,15.42-68.17,8.72-18.23,20.58-33.27,35.23-44.69.88-.7,1.8-1.42,2.73-2.09.84.62,1.74,1.3,2.76,2.09,14.68,11.4,26.53,26.43,35.22,44.69.64,1.35,1.26,2.72,1.87,4.07.76,1.77,1.4,3.29,2.02,4.85,6.86,17.45,10.74,37.39,11.52,59.28-11.54,3.01-22.23,8.86-30.99,16.98-8.81,7.94-16.33,18.22-22.39,30.6Z"/>
        <path class="cls-1" d="M250.34,500.77c-.85-.63-1.75-1.31-2.76-2.1-14.66-11.4-26.51-26.43-35.23-44.68-.64-1.35-1.26-2.72-1.86-4.06-.66-1.51-1.37-3.16-2.01-4.85-6.89-17.43-10.77-37.33-11.54-59.19,11.56-3.03,22.25-8.91,31-17.07,8.82-7.93,16.35-18.23,22.4-30.64,5.09,10.42,11.22,19.36,18.25,26.63.73.76,1.48,1.5,2.23,2.22l.11.11c.69.66,1.2,1.15,1.83,1.72,8.41,7.76,18.69,13.52,29.72,16.63.46.11.83.22,1.21.32-.89,25.66-6.07,48.59-15.41,68.19-8.72,18.24-20.57,33.27-35.22,44.68-.96.75-1.85,1.45-2.73,2.1Z"/>
        <path class="cls-1" d="M409.75,428.79c-13.87,0-28.11-2.55-42.33-7.58-1.15-.41-2.67-.96-4.18-1.57-1.5-.59-3.21-1.27-4.85-2.02-17.22-7.48-34.05-18.82-50.07-33.71.23-.37.45-.74.67-1.11,5.62-10.04,8.81-21.38,9.26-32.83.63-11.84-1.33-24.45-5.83-37.5,10.22,3.58,20.87,5.55,31.73,5.88h3.14c1.05,0,1.82,0,2.75-.08,11.91-.45,23.57-3.87,33.84-9.89,17.49,18.8,30.03,38.68,37.28,59.11,7.21,20.31,9.29,40.46,6.2,59.94-5.82.9-11.74,1.36-17.61,1.36Z"/>
        <path class="cls-1" d="M383.82,192.42c-10.29-6.02-21.98-9.44-33.9-9.9-1.43-.08-2.92-.12-4.39-.12-10.52,0-21.64,2-33.09,5.94,3.58-10.21,5.56-20.86,5.88-31.72v-3.14c0-.8-.03-1.42-.07-2.05l-.03-.65c-.45-11.91-3.86-23.6-9.9-33.89,18.81-17.51,38.69-30.06,59.11-37.31,14.22-5.05,28.43-7.61,42.23-7.61,5.91,0,11.85.47,17.7,1.39,3.03,19.54.94,39.7-6.23,59.95-.49,1.36-1.01,2.78-1.57,4.17-.76,1.91-1.4,3.46-2.03,4.9-7.46,17.2-18.79,34.03-33.7,50.03Z"/>
        <path class="cls-1" d="M385.79,303.8c-3.03-11.55-8.9-22.24-17.03-31.01-7.94-8.81-18.22-16.33-30.59-22.39,9.75-4.68,18.68-10.81,26.59-18.26.78-.76,1.51-1.49,2.23-2.24l.38-.39c.54-.56.98-1.02,1.46-1.56,8.09-8.72,13.94-19.39,16.96-30.92,25.65.91,48.57,6.09,68.15,15.41,19.46,9.26,35.18,22.04,46.73,37.98-11.67,15.97-27.4,28.74-46.78,37.98-1.36.65-2.72,1.26-4.06,1.86-1.8.78-3.34,1.42-4.85,2.02-17.42,6.88-37.33,10.76-59.19,11.53Z"/>
        <path class="cls-1" d="M250.32,330.91c-4.83-3.81-8.7-8.72-11.25-14.23-.22-.46-.41-.88-.59-1.3-.19-.44-.41-.98-.67-1.61-2.34-6.18-3.6-12.71-3.7-19.38l-.07-4.66-3.33,3.26c-5.54,5.44-12.04,9.57-19.32,12.29-4.25,1.57-8.71,2.36-13.24,2.36-1.58,0-3.16-.1-4.73-.29-.75-6.08-.03-12.28,2.09-18.03.11-.31.23-.62.35-.93l.17-.44c.17-.44.42-1.02.64-1.54,2.74-6.08,6.5-11.62,11.16-16.42l3.25-3.36-4.67-.04c-7.77-.06-15.3-1.73-22.37-4.95-5.56-2.55-10.46-6.41-14.23-11.22,3.77-4.82,8.67-8.7,14.24-11.27.45-.21.87-.41,1.31-.59l.47-.21c.33-.14.68-.3,1.05-.44,6.27-2.37,12.84-3.62,19.53-3.72l4.66-.07-3.26-3.33c-5.43-5.56-9.57-12.07-12.3-19.34-2.14-5.74-2.88-11.93-2.15-18,1.56-.19,3.13-.29,4.7-.29,4.58,0,9.08.8,13.38,2.39.46.16.9.33,1.32.5l.46.19c.36.14.76.31,1.13.46,6.08,2.73,11.6,6.49,16.4,11.15l3.35,3.26.04-4.67c.07-7.77,1.74-15.29,4.96-22.36,2.54-5.51,6.4-10.41,11.18-14.17l.07-.05s.03.03.05.04c4.79,3.77,8.66,8.68,11.2,14.19l.12.26c.16.34.32.69.47,1.04l.2.46c.14.33.3.69.44,1.07,2.38,6.28,3.64,12.85,3.73,19.54l.07,4.66,3.33-3.26c5.55-5.44,12.05-9.58,19.33-12.3,4.26-1.58,8.73-2.38,13.28-2.38,1.56,0,3.13.1,4.69.29.75,6.07.03,12.27-2.1,18.02-.17.49-.33.92-.5,1.37l-.66,1.59c-2.72,6.04-6.48,11.57-11.15,16.38l-3.26,3.35,4.68.04c7.77.07,15.3,1.73,22.37,4.96,5.58,2.53,10.48,6.38,14.26,11.19-3.76,4.83-8.65,8.71-14.22,11.27-.45.21-.87.41-1.31.59l-.42.18c-.33.14-.69.3-1.07.44-6.31,2.4-12.88,3.66-19.57,3.74l-4.68.06,3.28,3.34c5.44,5.55,9.58,12.05,12.3,19.33,2.15,5.74,2.88,11.94,2.16,18.01-1.56.19-3.13.29-4.69.29-4.56,0-9.04-.8-13.32-2.39-.32-.11-.59-.22-.87-.32l-.54-.2c-.44-.16-1-.4-1.5-.62-6.09-2.74-11.62-6.5-16.42-11.17l-3.35-3.26-.04,4.68c-.07,7.77-1.73,15.3-4.96,22.37-2.57,5.5-6.46,10.39-11.26,14.14l-.07.06h0Z"/>
      </g>
    </g>
  </g>
</svg>