<?xml version="1.0" encoding="UTF-8"?>
<svg id="Layer_2" data-name="Layer 2" xmlns="http://www.w3.org/2000/svg" viewBox="0 0 1439.31 503.95">
  <defs>
    <style>
      .cls-1 {
        fill: #fff;
      }
    </style>
  </defs>
  <g id="Layer_1-2" data-name="Layer 1">
    <g>
      <path class="cls-1" d="M1234.24,478.62c0-12.39,9.52-22.22,21.61-22.22s21.61,9.83,21.61,22.22-9.52,22.22-21.61,22.22-21.61-9.83-21.61-22.22ZM1274.21,478.68c0-10.87-8.06-19.23-18.37-19.23s-18.37,8.36-18.37,19.23,8.06,19.1,18.37,19.1,18.37-8.3,18.37-19.1ZM1255.78,481.12h-4.94v9.46h-3.3v-23.86h9.16c8.73,0,9.58,11.66,2.62,13.98l6.29,9.89h-3.78l-6.04-9.46ZM1256.51,478.19c5.62,0,5.62-8.54,0-8.54h-5.68v8.54h5.68Z"/>
      <polygon class="cls-1" points="499.18 209.17 499.18 4.14 626.19 4.14 622.41 25.52 534 25.52 534 101.19 603.79 101.19 600.02 122.57 534 122.57 534 209.17 499.18 209.17"/>
      <path class="cls-1" d="M761.24,209.17l-16.42-47.78h-79l-16.42,47.78h-22.63L698.52,4.14h28.52l71.76,205.03h-37.56ZM673.37,140.01h63.88l-29.78-84.63h-4.33l-29.78,84.63Z"/>
      <path class="cls-1" d="M950.55,209.17l-41.81-76.15h-36.03v76.15h-34.82V4.14h59.22c47.92,0,80.12,26.2,80.12,65.19,0,41.34-32.59,51.74-32.92,51.84l-1.42.43v3.49l46.39,84.08h-38.73ZM872.71,113.14h24.4c23.73,0,42.31-19.24,42.31-43.81s-18.59-43.81-42.31-43.81h-24.4v87.61Z"/>
      <polygon class="cls-1" points="1193.18 209.17 1193.18 64.34 1188.52 64.34 1124.32 176.32 1117.68 176.32 1053.48 64.34 1048.83 64.34 1048.83 209.17 1028.94 209.17 1028.94 4.14 1060.12 4.14 1127.3 122.09 1131.12 122.09 1198.31 4.14 1228 4.14 1228 209.17 1193.18 209.17"/>
      <path class="cls-1" d="M1401.75,209.17l-16.42-47.78h-79l-16.42,47.78h-22.63L1339.03,4.14h28.52l71.76,205.03h-37.56ZM1313.88,140.01h63.88l-29.78-84.63h-4.33l-29.78,84.63Z"/>
      <polygon class="cls-1" points="469.32 497.98 469.32 475.14 561.89 318.37 561.89 314.33 475.29 314.33 475.29 292.95 604.18 292.95 604.18 315.78 511.61 472.56 511.61 476.6 608.27 476.6 604.5 497.98 469.32 497.98"/>
      <path class="cls-1" d="M726.01,503.95c-26.04,0-49.9-10.44-67.2-29.4-18.22-19.96-27.85-47.31-27.85-79.09s9.63-59.13,27.85-79.09c17.3-18.96,41.17-29.4,67.2-29.4s49.9,10.44,67.2,29.4c18.22,19.96,27.85,47.31,27.85,79.09s-9.63,59.13-27.85,79.09c-17.3,18.96-41.17,29.4-67.2,29.4ZM726.01,306.86c-26.41,0-57.24,23.2-57.24,88.6s30.84,88.6,57.24,88.6,57.24-23.2,57.24-88.6-30.84-88.6-57.24-88.6Z"/>
      <polygon class="cls-1" points="989.19 497.98 895.12 351.66 890.54 351.66 890.54 497.98 869.16 497.98 869.16 292.95 900.4 292.95 994.47 439.27 999.05 439.27 999.05 292.95 1020.43 292.95 1020.43 497.98 989.19 497.98"/>
      <polygon class="cls-1" points="1078.57 497.98 1078.57 292.95 1208.56 292.95 1204.79 314.33 1113.39 314.33 1113.39 381.04 1180.19 381.04 1176.42 402.42 1113.39 402.42 1113.39 476.6 1211.93 476.6 1211.93 497.98 1078.57 497.98"/>
      <path class="cls-1" d="M33.04,486.87c-11.16-18.36-21.07-38.63-29.55-60.42-5.27-13.54-4.53-28.66,2.02-41.46l.12-.23c15.05-30.62,38.34-55.61,60.87-79.79,10.94-11.75,22.26-23.89,32.39-36.44C161.98,190.15,158.13,82.1,91.26,0c37,19.52,66.22,52.22,83.34,93.68,21.76,52.72,21.44,112.39-.88,163.71l-.05.11c-6.92,17.35-17.01,34.18-31.73,52.96l-7.59,9.68,11.84-3.37c2.93-.83,5.85-1.65,8.76-2.47,23.92-6.71,48.65-13.64,72.19-27.53l.09-.05c61.35-38.34,92.04-106.1,83.91-183.4,12.46,19.22,20.35,42.1,23.01,67.05,3.31,31.02-1.84,62.21-14.88,90.21-19.15,43-57.19,79.17-101.76,96.83-16.39,6.91-35.01,12.04-53.01,17.01-22.53,6.21-43.81,12.08-61.06,21.11-53.53,28.04-67.01,70.62-70.4,91.33Z"/>
    </g>
  </g>
</svg>