<?xml version="1.0" encoding="UTF-8"?>
<svg id="Layer_1" data-name="Layer 1" xmlns="http://www.w3.org/2000/svg" viewBox="0 0 1000 1000">
  <defs>
    <style>
      .cls-1 {
        fill: #007bff;
      }

      .cls-1, .cls-2 {
        stroke-width: 0px;
      }

      .cls-2 {
        fill: #1a2632;
      }
    </style>
  </defs>
  <path class="cls-2" d="M674.66,708.41h65.72c-3.79,34.48-31.25,61.94-65.72,65.72v-65.72Z"/>
  <polygon class="cls-1" points="674.66 660.45 674.66 299.15 740.83 216.89 740.83 660.45 674.66 660.45"/>
  <polygon class="cls-1" points="259.95 660.45 259.95 299.14 326.12 216.89 326.12 594.29 363.63 594.29 363.63 450.38 429.79 368.13 429.79 594.29 467.31 594.29 467.31 299.14 533.47 216.89 533.47 594.29 570.99 594.29 570.99 450.38 637.15 368.13 637.15 660.45 259.95 660.45"/>
  <path class="cls-2" d="M342.21,744.89l38.84-38.84,38.84,38.84-38.84,38.84-38.84-38.84ZM263.34,744.89l38.84-38.84,38.84,38.84-38.84,38.84-38.84-38.84Z"/>
  <path class="cls-2" d="M551.06,744.89l38.84-38.84,38.84,38.84-38.84,38.84-38.84-38.84ZM472.19,744.89l38.84-38.84,38.84,38.84-38.84,38.84-38.84-38.84Z"/>
</svg>