<?xml version="1.0" encoding="UTF-8"?>
<svg id="Layer_2" data-name="Layer 2" xmlns="http://www.w3.org/2000/svg" viewBox="0 0 614.28 248.39">
  <defs>
    <style>
      .cls-1 {
        fill: #fff;
        stroke-width: 0px;
      }
    </style>
  </defs>
  <g id="Layer_1-2" data-name="Layer 1">
    <g>
      <g>
        <g>
          <path class="cls-1" d="M228.64,97.85h16.91l30.27,69.29-5.79.24,30.27-69.52h16.79v82.41h-15.25v-69.05l5.79.95-29.09,68.1h-11.23l-29.2-68.1,5.79-.95v69.05h-15.25v-82.41Z"/>
          <path class="cls-1" d="M363,181.09c-5.2,0-9.95-.81-14.25-2.42-4.3-1.61-8-3.9-11.11-6.86-3.11-2.96-5.52-6.44-7.21-10.46-1.7-4.02-2.54-8.43-2.54-13.24,0-5.2.91-9.87,2.72-14.01,1.81-4.14,4.32-7.72,7.51-10.76,3.19-3.03,6.9-5.34,11.11-6.92,4.22-1.58,8.61-2.36,13.18-2.36,4.1,0,7.84.53,11.23,1.6,3.39,1.06,6.36,2.6,8.93,4.61,2.56,2.01,4.55,4.32,5.97,6.92,1.42,2.6,2.13,5.44,2.13,8.51,0,4.18-1.18,7.65-3.55,10.41-2.37,2.76-5.52,4.93-9.46,6.5-3.94,1.58-8.26,2.66-12.95,3.25-4.69.59-9.32.81-13.89.65-.71-.08-1.6-.14-2.66-.18-1.06-.04-2.01-.08-2.84-.12-.83-.04-1.32-.06-1.48-.06.47,2.36,1.63,4.49,3.49,6.38,1.85,1.89,4.16,3.39,6.92,4.49,2.76,1.1,5.68,1.66,8.75,1.66,2.68,0,5.28-.45,7.8-1.36,2.52-.91,4.87-2.15,7.04-3.72,2.17-1.58,3.92-3.39,5.26-5.44l10.88,8.16c-2.52,3.39-5.44,6.17-8.75,8.34-3.31,2.17-6.84,3.78-10.58,4.85-3.74,1.06-7.63,1.6-11.65,1.6ZM351.64,145.03c2.76,0,5.54-.14,8.34-.41,2.8-.28,5.38-.77,7.75-1.48,2.36-.71,4.29-1.69,5.79-2.96,1.5-1.26,2.25-2.88,2.25-4.85,0-1.66-.55-3.15-1.66-4.49-1.11-1.34-2.6-2.4-4.49-3.19-1.89-.79-4.1-1.18-6.62-1.18-3.86,0-7.29.85-10.29,2.54-3,1.7-5.32,3.96-6.98,6.8s-2.6,5.79-2.84,8.87c1.02.08,2.31.16,3.84.24,1.54.08,3.17.12,4.91.12Z"/>
          <path class="cls-1" d="M402.59,180.27v-65.38h15.25v65.38h-15.25ZM414.06,148.58l3.78-18.92c1.5-4.73,4.04-8.49,7.63-11.29,3.59-2.8,7.78-4.2,12.59-4.2v15.84c-.71-.16-1.38-.28-2.01-.36-.63-.08-1.26-.12-1.89-.12-3.15,0-5.97.73-8.45,2.19-2.48,1.46-4.42,3.59-5.79,6.38-1.38,2.8-2.07,6.29-2.07,10.46h-3.78Z"/>
          <path class="cls-1" d="M472.94,181.09c-6.31,0-11.88-1.4-16.73-4.2-4.85-2.8-8.63-6.7-11.35-11.71-2.72-5-4.08-10.86-4.08-17.56s1.36-12.77,4.08-17.74c2.72-4.97,6.48-8.85,11.29-11.65,4.81-2.8,10.41-4.2,16.79-4.2,3.62,0,6.99.38,10.11,1.12,3.11.75,5.89,1.91,8.33,3.49,2.44,1.58,4.61,3.63,6.5,6.15,1.89,2.52,3.47,5.6,4.73,9.22l-14.66,4.61c-1.34-3.86-3.27-6.78-5.79-8.75-2.52-1.97-5.64-2.96-9.34-2.96-3.23,0-6.11.79-8.63,2.36-2.52,1.58-4.45,3.9-5.79,6.98-1.34,3.07-2.01,6.86-2.01,11.35,0,4.26.67,7.94,2.01,11.05,1.34,3.12,3.27,5.5,5.79,7.15,2.52,1.66,5.4,2.48,8.63,2.48,4.33,0,7.82-1.2,10.46-3.61,2.64-2.4,4.43-5.58,5.38-9.52l14.66,3.43c-1.11,4.1-2.96,7.84-5.56,11.23-2.6,3.39-5.93,6.11-9.99,8.16-4.06,2.05-9.01,3.07-14.84,3.07Z"/>
          <path class="cls-1" d="M556.99,180.27v-65.38h15.25v65.38c0,4.65-.71,8.89-2.13,12.71-1.42,3.82-3.51,7.17-6.27,10.05-2.76,2.88-6.17,5.12-10.23,6.74-4.06,1.61-8.77,2.42-14.13,2.42s-9.87-.85-14.01-2.54c-4.14-1.7-7.69-4.22-10.64-7.57-2.96-3.35-5.22-7.47-6.8-12.36l13.72-4.73c1.58,4.26,3.78,7.67,6.62,10.23,2.84,2.56,6.38,3.84,10.64,3.84,5.52,0,9.89-1.64,13.12-4.91,3.23-3.27,4.85-7.9,4.85-13.89ZM559.7,150.94c-.24,5.99-1.1,10.92-2.6,14.78-1.5,3.86-3.37,6.8-5.62,8.81-2.25,2.01-4.65,3.39-7.21,4.14-2.56.75-5.07,1.12-7.51,1.12-5.12,0-9.62-1.06-13.48-3.19-3.86-2.13-6.86-5.28-8.99-9.46-2.13-4.18-3.19-9.26-3.19-15.25v-37.01h15.13v34.17c0,5.6,1.4,9.93,4.2,13.01,2.8,3.07,6.48,4.61,11.05,4.61,3.15,0,5.89-.83,8.22-2.48,2.32-1.66,4.12-3.88,5.38-6.68,1.26-2.8,1.89-6.01,1.89-9.64l2.72,3.07Z"/>
        </g>
        <path class="cls-1" d="M600.7,119.73c-2.67,0-5.02-.6-7.07-1.79-2.05-1.19-3.65-2.84-4.83-4.93-1.17-2.09-1.76-4.45-1.76-7.07s.59-5.03,1.76-7.1c1.17-2.07,2.78-3.71,4.83-4.93,2.04-1.22,4.4-1.83,7.07-1.83s5.01.61,7.03,1.83c2.02,1.22,3.62,2.86,4.79,4.93,1.17,2.07,1.76,4.44,1.76,7.1s-.59,4.97-1.76,7.07c-1.17,2.09-2.77,3.73-4.79,4.93-2.02,1.2-4.37,1.79-7.03,1.79ZM600.7,117.46c3.35,0,6.04-1.08,8.06-3.24,2.02-2.16,3.03-4.92,3.03-8.27s-1.01-6.11-3.03-8.27c-2.02-2.16-4.71-3.24-8.06-3.24s-6.06,1.08-8.1,3.24c-2.05,2.16-3.07,4.92-3.07,8.27s1.02,6.11,3.07,8.27c2.04,2.16,4.74,3.24,8.1,3.24ZM603.87,113.25c0-.73-.12-1.55-.34-2.45-.23-.9-.74-1.69-1.52-2.38-.78-.69-2.02-1.03-3.72-1.03v5.86h-2.96v-14.82h6.41c1.52,0,2.72.4,3.62,1.21.9.8,1.34,1.9,1.34,3.27,0,1.93-.87,3.26-2.62,4,.83.37,1.46.93,1.9,1.69.44.76.73,1.56.9,2.41.16.85.24,1.6.24,2.24h-3.24ZM598.28,104.91h3.24c.64,0,1.17-.15,1.58-.45.41-.3.62-.79.62-1.48,0-.64-.21-1.11-.62-1.41-.41-.3-.94-.45-1.58-.45h-3.24v3.79Z"/>
      </g>
      <path class="cls-1" d="M12.87,248.39c-7.24-10.96-11.68-23.58-12.87-36.65,7.91-8.27,17.25-14.62,27.78-18.87l8.72-3.52-9.27,1.61c-4.53.79-9.17,1.18-13.79,1.18-4.25,0-8.5-.34-12.66-1,1.45-8.73,4.33-17.09,8.58-24.89,13.71,4.69,28.06,7.07,42.67,7.07,3.09,0,6.23-.11,9.33-.32l.93-.06h0c14.92-1.14,29.45-4.81,43.18-10.93l6.47-2.88-7.02.98c-3.61.5-7.29.76-10.95.76-13.09,0-26.07-3.25-37.57-9.39l-.44-.25c-8.34-4.52-15.97-10.65-22.21-17.82,3.1.69,6.24,1.17,9.83,1.54l3.54.36-2.83-2.15c-13.97-10.61-23.88-24.62-28.81-40.7,7.67,6.98,16.45,12.35,26.15,16l4.15,1.56-3.08-3.19C22.06,85.42,15.14,54.84,24.33,26.42c.82,2.03,1.93,4.53,3.07,6.76l.18.35c7.49,15.44,22.45,29.68,39.15,37.23,24.56,11.16,45.47,30.47,58.88,54.37l5.46,9.74-3.65-10.55c-2.31-6.69-5.17-13.2-8.5-19.34l-.1-.19c-14.36-26.73-33.87-40.68-43.25-47.38-1.97-1.41-3.58-2.56-4.54-3.4.63-4.04,1.58-8.03,2.84-11.92,1.11,3.73,2.51,7.44,4.18,11.05l2.12,4.56-.21-5.03c-.44-10.48,2.24-22.7,7.42-34.19-.4,11.68,1.76,21.33,3.77,27.65l1.94,6.07.02-6.37c.04-16.59,5.17-32.63,14.55-45.82-4.34,14.26-2.39,29.31,5.54,41.89,6.63,11.51,12.19,22.54,12.75,40.7.2,4.43-.15,10.38-.88,14.82l1.96.37c.47-2.16,1.11-4.34,1.91-6.49l.06-.17h0c.47-1.27,1-2.52,1.58-3.73l.1-.21h0c3.3-6.88,8.94-13.74,14.78-17.96,2.89-1.95,6.3-3,9.83-3,5.88,0,11.34,2.89,14.64,7.75.53,1,2.77,3.78,5.21,5.86h0s.37.32.37.32c.68.56,1.37,1.07,2.07,1.54-.69.21-1.38.45-2.05.72l-.32.13c-1.43.55-3.18,1.46-4.76,2.49l-.45.3v.02c-7.25,4.92-11.8,13.03-12.21,21.79l-.03,38.88h-.04l.03,1.04c.99,25.13-18.25,47.54-43.82,51.01-1.96.27-4,.4-6.07.4-2.6,0-5.31-.21-8.04-.64-3.69-.58-7.49-.87-11.3-.87-33.03,0-63.18,20.59-75.64,51.43ZM158.68,71.23c-3.14,0-4.78,2.42-4.78,4.81s1.64,4.81,4.78,4.81,4.77-2.42,4.77-4.81-1.64-4.81-4.77-4.81Z"/>
    </g>
  </g>
</svg>