<?xml version="1.0" encoding="UTF-8"?>
<svg id="Layer_2" data-name="Layer 2" xmlns="http://www.w3.org/2000/svg" viewBox="0 0 683.98 231.94">
  <defs>
    <style>
      .cls-1 {
        fill: #fff;
      }
    </style>
  </defs>
  <g id="Layer_1-2" data-name="Layer 1">
    <g>
      <g>
        <g>
          <path class="cls-1" d="M380.56,99.19c0,26.7-18.66,48.88-46.28,48.88s-46.28-22.04-46.28-49.73c0-25.99,20.42-48.17,46.28-48.17,27.62,0,46.28,22.04,46.28,49.02ZM334.28,55.96c-19.83,0-31.44,18.79-31.44,43.23s11.61,43.23,31.44,43.23,31.44-18.79,31.44-43.23-11.61-43.23-31.44-43.23Z"/>
          <path class="cls-1" d="M400.47,146.51v-5.93h11.75V57.66h-11.75v-5.93h35.85v5.93h-10.87v82.92h39.23v-13.84h6.17v19.78h-70.38Z"/>
          <path class="cls-1" d="M582.91,98.91c-.44,32.35-23.21,47.61-49.96,47.61h-41.14v-5.79h11.02V57.52h-11.02v-5.79h40.99c30.85,0,50.1,16.95,50.1,47.18ZM567.48,98.91c.44-26.84-14.11-41.39-34.67-41.39h-16.6v83.21h16.75c20.72,0,34.53-15.26,34.53-41.81Z"/>
          <path class="cls-1" d="M676.04,57.52l-31.59,48.74v34.33h12.34v5.93h-38.05v-5.93h12.34v-32.49l-29.83-50.57h-8.37v-5.79h34.09v5.79h-11.46l24.1,41.11,26.89-41.11h-12.49v-5.79h29.97v5.79h-7.93Z"/>
        </g>
        <g>
          <path class="cls-1" d="M382.24,193.67v-1.7h3.19v-24.39h-3.19v-1.7h10.46v1.7h-3.4v24.39h3.4v1.7h-10.46ZM406.14,167.58h-2.41l-9.34,10.39c1.59,5.26,6.89,12.26,11.67,15.12l-1.03,1.57c-6.2-3.35-11.24-8.95-14.73-15.53l10.59-11.55h-3.4v-1.7h8.65v1.7Z"/>
          <path class="cls-1" d="M442.33,167.58v14.91c0,6.5-2.63,11.68-10.81,11.68-7.58,0-10.81-4.72-10.81-11.68v-14.91h-3.19v-1.7h10.55v1.7h-3.4v14.54c0,6,1.85,10.1,7.67,10.1s7.66-4.93,7.66-10.1v-14.54h-3.4v-1.7h9.09v1.7h-3.36Z"/>
          <path class="cls-1" d="M494.95,167.54l-10.64,26.13h-1.81l-5.17-12.05-4.91,12.05h-1.81l-11.2-26.13h-2.41v-1.7h9.78v1.7h-3.45l8.83,20.54,3.88-9.48-4.74-11.06h-2.41v-1.7h16.45v1.7h-2.28l-3.83,9.36,4.82,11.18,8.4-20.54h-3.66v-1.7h8.44v1.7h-2.28ZM475.23,167.54l2.76,6.38,2.58-6.38h-5.34Z"/>
          <path class="cls-1" d="M521.17,193.67v-1.7h3.45l-3.66-8.86h-10.03l-3.53,8.86h3.66v1.7h-8.44v-1.7h2.28l10.63-26.59h1.81l11.2,26.59h2.41v1.7h-9.78ZM515.78,170.98l-4.09,10.23h8.44l-4.35-10.23Z"/>
          <path class="cls-1" d="M542.69,193.67v-1.7h3.49v-24.39h-3.49v-1.7h10.94v1.7h-3.49v24.39h3.49v1.7h-10.94Z"/>
          <path class="cls-1" d="M587.87,171.68v-4.1h-8.31v24.39h3.62v1.7h-11.24v-1.7h3.62v-24.39h-8.35v4.1h-1.81v-5.8h24.33v5.8h-1.85Z"/>
        </g>
      </g>
      <g>
        <path class="cls-1" d="M115.86,231.94c-9.96,0-19.59-3.91-26.4-10.72-.37-.37-.73-.75-1.09-1.15-10.04-11.03-9.81-25.02-9.25-30.52,2.21-21.3,26.19-45.06,42.06-60.78,0,0,2.84-2.81,3.81-3.79.54-.53,1.08-1.09,1.64-1.65,2.5,2.4,4.86,4.64,7.19,6.8-.64.64-1.25,1.26-1.84,1.84-1.04,1.04-3.85,3.83-3.85,3.83-1.52,1.51-2.95,2.93-4.44,4.41l-1.64,1.64,1.56,1.7c12.99,14.15,21.49,25.02,24.57,31.42,4.49,9.32,5.91,16.63,4.76,24.42-1.79,12.07-10.71,26.35-26.57,31.03-3.39,1-6.93,1.51-10.52,1.51ZM113.36,150.86c-15.38,16.59-23.37,29.57-24.42,39.7-.42,4.18-.62,14.78,6.74,22.85.26.28.52.56.79.83,4.95,4.95,12.04,7.79,19.45,7.79,2.63,0,5.21-.37,7.66-1.09,11.69-3.45,18.26-14.04,19.59-23,.86-5.76-.27-11.17-3.88-18.68-2.55-5.29-10.7-15.64-22.37-28.39l-1.77-1.94-1.78,1.92Z"/>
        <path class="cls-1" d="M37.98,153.05c-7.17,0-17.51-1.64-26.11-9.47-.38-.35-.77-.71-1.14-1.09C1.29,133.05-2.33,118.56,1.51,105.57c4.69-15.86,18.97-24.77,31.04-26.57,1.76-.26,3.43-.39,5.12-.39,5.96,0,11.91,1.59,19.29,5.14,13.56,6.54,41.2,33.62,49.34,41.76l1,1c-1.94,1.95-4.34,4.39-6.9,7.08-.36-.36-.72-.72-1.08-1.09-2.47-2.47-4.98-4.93-7.46-7.33l-1.65-1.6-1.68,1.57c-18.5,17.33-33.6,26.38-46.15,27.68-1.41.15-2.9.22-4.41.22ZM37.58,88.51c-1.2,0-2.37.09-3.58.27-8.97,1.33-19.56,7.91-23,19.59-1.37,4.63-1.45,9.65-.24,14.54,1.22,4.89,3.63,9.25,6.97,12.6.26.27.54.52.81.77,6.26,5.7,13.98,6.9,19.35,6.9,1.18,0,2.35-.06,3.48-.17,10.13-1.05,23.12-9.03,39.71-24.42l1.92-1.79-1.94-1.77c-12.78-11.67-23.13-19.82-28.39-22.36-5.96-2.87-10.62-4.15-15.1-4.15Z"/>
        <path class="cls-1" d="M105.31,108.61c-2.4-2.3-4.81-4.58-7.19-6.79l1.85-1.86c.98-.98,3.84-3.82,3.84-3.82,1.48-1.45,2.94-2.9,4.44-4.41l1.64-1.64-1.57-1.7c-12.99-14.16-21.49-25.03-24.57-31.43-4.49-9.32-5.92-16.62-4.75-24.41,1.79-12.07,10.7-26.35,26.56-31.04C108.96.51,112.5,0,116.09,0c9.96,0,19.58,3.91,26.4,10.72.37.37.74.75,1.1,1.15,10.06,11.06,9.81,25.03,9.24,30.52-2.2,21.3-26.18,45.05-42.05,60.77l-.15.15c-1.28,1.27-2.52,2.5-3.67,3.65l-1.65,1.66ZM116.02,9.9c-2.63,0-5.21.37-7.65,1.09-11.68,3.45-18.26,14.04-19.59,23-.85,5.76.27,11.17,3.88,18.67,2.53,5.27,10.69,15.62,22.36,28.4l1.77,1.94,1.78-1.92c15.38-16.58,23.37-29.57,24.42-39.71.43-4.17.64-14.75-6.72-22.85-.35-.36-.57-.6-.8-.82-4.95-4.95-12.05-7.8-19.46-7.8Z"/>
        <path class="cls-1" d="M194.26,153.33c-5.96,0-11.9-1.59-19.28-5.15-13.59-6.55-41.21-33.61-49.34-41.75l-1-1.01c1.95-1.97,4.37-4.42,6.9-7.08.36.37.73.73,1.09,1.09,2.47,2.47,4.97,4.94,7.46,7.33l1.65,1.59,1.68-1.57c11.81-11.06,29.44-25.95,46.13-27.68,1.42-.15,2.9-.22,4.42-.22,7.16,0,17.5,1.64,26.11,9.47.38.35.77.73,1.14,1.1,9.44,9.44,13.05,23.93,9.21,36.91-4.68,15.87-18.95,24.78-31.03,26.57-1.77.26-3.45.39-5.14.39ZM194.04,88.77c-1.17,0-2.33.06-3.47.17-10.13,1.05-23.12,9.04-39.7,24.41l-1.92,1.78,1.94,1.77c12.78,11.68,23.12,19.83,28.39,22.37,5.95,2.87,10.61,4.15,15.09,4.15,1.2,0,2.37-.09,3.59-.27,8.97-1.33,19.56-7.91,23-19.59,2.78-9.42.09-20.31-6.7-27.1-.25-.26-.51-.5-.77-.75-6.32-5.75-14.05-6.95-19.44-6.95Z"/>
      </g>
    </g>
  </g>
</svg>