<?xml version="1.0" encoding="UTF-8"?>
<svg id="Layer_2" data-name="Layer 2" xmlns="http://www.w3.org/2000/svg" viewBox="0 0 590.73 175.48">
  <defs>
    <style>
      .cls-1 {
        fill: #fff;
        stroke-width: 0px;
      }
    </style>
  </defs>
  <g id="Layer_1-2" data-name="Layer 1">
    <g>
      <g>
        <g>
          <path class="cls-1" d="m570.28,22.93V6.89h7.16c1.44,0,2.55.38,3.35,1.16s1.2,1.83,1.2,3.17c0,2-.9,3.29-2.69,3.86v.07c.81.27,1.38.73,1.72,1.38.34.65.53,1.61.59,2.88.09,2.03.32,3.18.7,3.43v.09h-1.62c-.18-.12-.3-.4-.37-.85-.07-.45-.14-1.36-.21-2.74-.06-1.36-.35-2.3-.86-2.8-.52-.51-1.37-.76-2.57-.76h-4.89v7.16h-1.5Zm1.5-8.44h5.14c1.15,0,2.03-.27,2.62-.82s.9-1.32.9-2.32-.26-1.81-.79-2.34-1.37-.8-2.54-.8h-5.34v6.28Z"/>
          <path class="cls-1" d="m575.96,29.54c-8.14,0-14.77-6.63-14.77-14.77s6.63-14.77,14.77-14.77,14.77,6.63,14.77,14.77-6.63,14.77-14.77,14.77Zm0-28.37c-7.5,0-13.6,6.1-13.6,13.6s6.1,13.6,13.6,13.6,13.6-6.1,13.6-13.6-6.1-13.6-13.6-13.6Z"/>
        </g>
        <polygon class="cls-1" points="106.2 17.96 86.1 38.05 64.65 38.05 47.08 98.11 22.66 98.11 40.23 38.05 40.27 37.93 4.41 37.93 4.72 36.86 10.25 17.96 106.2 17.96"/>
        <path class="cls-1" d="m195.94,63.68l-1.37,4.69c-3.66,12.52-9.35,20.76-17.05,24.73-7.7,3.97-18.37,5.96-32.01,5.96l-19.94-.12c-10.59,0-18.53-.56-23.81-1.68-5.29-1.12-8.99-3.97-11.1-8.54-2.11-4.57-1.74-11.75,1.13-21.54l14.41-49.22h24.43l-12.29,42c-2.35,8.02-2.91,13.24-1.69,15.64,1.22,2.41,5.72,3.61,13.51,3.61l10.91.12,10.14-.12c6.66,0,11.24-1.04,13.73-3.13,2.49-2.08,4.67-6.3,6.53-12.64l.88-3.01,12.44-42.48h24.55l-13.39,45.73Z"/>
        <path class="cls-1" d="m296.01,17.83c9.63,0,15.96,1.87,19,5.6,3.04,3.73,3.17,10.33.4,19.8-1.06,3.61-2.16,6.7-3.31,9.27-1.15,2.57-2.61,4.8-4.36,6.68-1.75,1.89-3.57,3.29-5.44,4.21-1.88.92-5.63,2.23-11.25,3.91,5.4.72,9.12,2.15,11.14,4.27,2.03,2.13,2.26,5.84.71,11.13l-4.51,15.4h-24.79l2.26-7.7c1.15-3.93,1.72-7.06,1.72-9.39,0-2.33-2.85-3.49-8.55-3.49h-40.79l-6.02,20.58h-24.43l23.5-80.27h74.73Zm-21.99,40.19c5.54,0,9.18-.68,10.95-2.05,1.76-1.36,3.34-4.41,4.72-9.15.77-2.65,1.09-4.61.94-5.9-.15-1.28-.97-2.17-2.47-2.65-1.51-.48-2.77-.76-3.78-.84-1.02-.08-2.25-.12-3.7-.12h-40.67l-6.06,20.7h40.07Z"/>
        <path class="cls-1" d="m426.91,22.41c-3.36-3.05-9.05-4.58-17.07-4.58h-76.18l-5.24,17.86h61.06l.08-.29,1.81-6.36,19.34,13.35-26.91,13.35,1.81-6.37.08-.28h-61.17l-14.35,49.02h77.38c9.23,0,16.46-1.63,21.71-4.87,5.24-3.25,9.17-9.33,11.77-18.24,1.86-6.33,1.87-10.63.04-12.87-1.83-2.25-5.84-3.9-12.02-4.94,2.58-.64,4.62-1.21,6.08-1.69,1.47-.48,3.19-1.39,5.14-2.76,1.97-1.37,3.6-3.24,4.89-5.6,1.3-2.37,2.44-5.24,3.43-8.61,2.25-7.7,1.7-13.07-1.66-16.12Zm-29.59,49.7c-1.18,4-2.93,6.31-5.28,6.91-2.34.6-4.91.91-7.73.91h-44.4l4.3-14.69h44.76c4.1,0,6.67.6,7.71,1.81,1.06,1.21,1.26,2.89.63,5.06Z"/>
        <path class="cls-1" d="m499.97,16.99l19.46.12c14.28,0,23.35,2.37,27.23,7.1,3.87,4.73,3.73,14.2-.43,28.4l-1.13,3.85c-4.88,16.69-10.24,27.86-16.07,33.51-5.83,5.65-17.21,8.48-34.13,8.48l-18.52.36-7.74.12-16.43-.6c-9.31,0-15.87-2.11-19.69-6.32-3.82-4.21-4.36-11.01-1.61-20.4l4.09-14.8c4.77-16.28,9.97-26.93,15.61-31.95,5.64-5.01,16.28-7.52,31.93-7.52l17.43-.36Zm-31.38,61.97l13.05.24,12.55-.12c6.9,0,12.07-.74,15.52-2.23,3.44-1.49,6.03-5.17,7.74-11.04l3.42-10.86c1.08-3.7,1.78-6.86,2.11-9.47.32-2.61-.01-4.54-1.01-5.79-1-1.25-2.78-2.07-5.35-2.47-2.57-.4-5.38-.6-8.43-.6l-24.34.12c-5.54,0-9.91.56-13.13,1.69-3.22,1.13-5.58,3.52-7.1,7.18-1.51,3.66-2.62,6.7-3.33,9.11l-.64,2.17-.95,3.26c-2.17,7.4-2.77,12.39-1.79,14.96.97,2.58,4.87,3.86,11.69,3.86Z"/>
        <line class="cls-1" x1="4.57" y1="37.5" x2="4.41" y2="38.06"/>
      </g>
      <g>
        <path class="cls-1" d="m76.96,111.94c7.54,0,12.5,1.46,14.89,4.39,2.38,2.92,2.49,8.09.32,15.51-.83,2.83-1.69,5.25-2.6,7.26-.9,2.01-2.04,3.76-3.42,5.23-1.38,1.48-2.8,2.58-4.27,3.3-1.47.72-4.41,1.74-8.82,3.06,4.23.57,7.14,1.68,8.73,3.35,1.59,1.67,1.77,4.57.56,8.72l-3.53,12.07h-19.42l1.77-6.03c.9-3.08,1.35-5.53,1.35-7.35,0-1.82-2.23-2.73-6.69-2.73h-31.96l-4.72,16.12H0l18.41-62.89h58.55Zm-17.23,31.49c4.34,0,7.19-.53,8.58-1.6,1.38-1.07,2.62-3.46,3.7-7.17.61-2.07.85-3.61.74-4.62-.12-1-.76-1.7-1.94-2.07-1.18-.38-2.17-.6-2.97-.66-.8-.06-1.76-.09-2.89-.09h-31.87l-4.75,16.22h31.4Z"/>
        <path class="cls-1" d="m176.61,111.94l-4.2,14.33h-51.01l-3.15,10.75h47.61l-3.64,12.45h-47.61l-3.26,11.13h51.01l-4.17,14.24h-70.15l18.41-62.89h70.15Z"/>
        <path class="cls-1" d="m235.54,111.94c9.49,0,15.62,1.54,18.4,4.62,2.78,3.08,2.8,9.27.08,18.57-2.58,8.8-5.82,15.01-9.74,18.62-3.92,3.62-10.44,5.42-19.55,5.42h-34.79l-4.58,15.65h-19.14l18.41-62.89h50.91Zm-1.04,23.85c1.03-3.52.95-5.83-.23-6.93-1.19-1.1-3.67-1.65-7.44-1.65h-27.53l-4.89,16.69h27.81c3.64,0,6.36-.52,8.14-1.56,1.78-1.04,3.16-3.22,4.13-6.55Z"/>
        <path class="cls-1" d="m326.06,111.94c7.54,0,12.5,1.46,14.89,4.39,2.38,2.92,2.49,8.09.32,15.51-.83,2.83-1.69,5.25-2.6,7.26-.9,2.01-2.04,3.76-3.42,5.23-1.38,1.48-2.8,2.58-4.27,3.3-1.47.72-4.41,1.74-8.82,3.06,4.23.57,7.14,1.68,8.73,3.35,1.59,1.67,1.77,4.57.56,8.72l-3.53,12.07h-19.42l1.77-6.03c.9-3.08,1.35-5.53,1.35-7.35,0-1.82-2.23-2.73-6.69-2.73h-31.96l-4.72,16.12h-19.14l18.41-62.89h58.55Zm-17.23,31.49c4.34,0,7.19-.53,8.58-1.6,1.38-1.07,2.62-3.46,3.7-7.17.61-2.07.85-3.61.74-4.62-.12-1-.76-1.7-1.94-2.07-1.18-.38-2.17-.6-2.97-.66-.8-.06-1.76-.09-2.89-.09h-31.87l-4.75,16.22h31.4Z"/>
        <path class="cls-1" d="m396.12,111.28l15.25.09c11.19,0,18.3,1.85,21.33,5.56,3.03,3.71,2.92,11.13-.34,22.25l-.88,3.02c-3.83,13.07-8.02,21.82-12.59,26.26-4.57,4.43-13.48,6.65-26.74,6.65l-14.51.28-6.06.09-12.87-.47c-7.29,0-12.43-1.65-15.43-4.95-2.99-3.3-3.41-8.63-1.26-15.98l3.21-11.6c3.74-12.76,7.81-21.1,12.23-25.03,4.42-3.93,12.75-5.89,25.01-5.89l13.66-.28Zm-24.58,48.56l10.22.19,9.83-.09c5.41,0,9.46-.58,12.16-1.75,2.7-1.17,4.72-4.05,6.07-8.65l2.68-8.51c.85-2.9,1.4-5.37,1.65-7.42.25-2.05-.01-3.56-.79-4.54-.78-.98-2.18-1.62-4.2-1.94-2.01-.31-4.21-.47-6.6-.47l-19.07.09c-4.34,0-7.77.44-10.29,1.32-2.52.88-4.38,2.76-5.56,5.63-1.19,2.87-2.05,5.25-2.61,7.14l-.5,1.7-.75,2.55c-1.7,5.8-2.17,9.71-1.41,11.72.76,2.02,3.81,3.03,9.16,3.03Z"/>
        <path class="cls-1" d="m521.2,139.37l-3.77,13.2c-2.26,7.73-5.28,13.47-9.04,17.21-3.77,3.74-9.51,5.61-17.25,5.61l-10.02.09-11.38-.09-9.87-.09c-7.23,0-12.82-.49-16.78-1.46-3.96-.97-6.69-3.13-8.2-6.46-1.51-3.33-1.26-8.42.75-15.27l2.13-7.92c3.59-12.26,7.58-20.74,11.98-25.46,4.4-4.71,12.19-7.07,23.38-7.07l14.41-.28,5.31-.09,12.74.28c8.3,0,13.9,1.43,16.8,4.29,2.9,2.86,3.16,8.38.77,16.55l-.33,1.13h-18.76c.44-1.51.6-2.8.47-3.86-.13-1.07-.72-1.82-1.79-2.26-1.07-.44-2.14-.71-3.21-.8-1.07-.09-2.65-.14-4.72-.14l-22.13-.09c-4.53,0-7.71,1.1-9.55,3.3-1.84,2.2-3.52,5.91-5.05,11.13l-1.71,5.85c-1.27,4.34-1.62,7.56-1.04,9.66.58,2.11,1.92,3.3,4.04,3.58,2.12.28,3.76.46,4.94.52,1.18.06,2.68.09,4.5.09l17.04.09c3.21,0,5.89-.53,8.06-1.6,2.17-1.07,3.68-3.08,4.55-6.03l.43-1.79h-24.23l3.45-11.79h43.09Z"/>
      </g>
    </g>
  </g>
</svg>