<?xml version="1.0" encoding="UTF-8"?>
<svg id="Layer_2" data-name="Layer 2" xmlns="http://www.w3.org/2000/svg" viewBox="0 0 1434.82 740.19">
  <defs>
    <style>
      .cls-1 {
        fill: #fff;
        stroke-width: 0px;
      }
    </style>
  </defs>
  <g id="Layer_1-2" data-name="Layer 1">
    <g>
      <g>
        <path class="cls-1" d="M1277.35,387.09l-.57,3.73-16.29,2.83c5.57-2.74,11.22-4.96,16.86-6.57Z"/>
        <g>
          <polygon class="cls-1" points="1239.13 688.51 1216.14 711.19 1193.8 688.51 1167.47 714.52 1193.8 740.19 1216.14 717.85 1239.13 740.19 1264.79 714.52 1239.13 688.51"/>
          <g>
            <path class="cls-1" d="M1283.97,349.54l-6.62,43.85-.57,3.73-16.29,2.83-8.52,1.49c-24.4,4.25-49.75,7.98-71.97,19.56-37.74,19.64-52.2,65.4-52.67,105.37-.23,18.41,3.94,36.23,11.89,51.83-10.68-3.79-22.93-9.36-35.14-17.51-4.82-32.16,2.47-65.77,17.07-94.99,12.67-25.36,30.59-47.76,50.63-67.68,4.02-4.02,13.88-10.07,16.08-15.12,1.51-3.48-.77-3.67-3.79-6.41-2.41-2.2-4.67-4.59-6.7-7.16-7.45-9.46-11.89-21.25-11.89-33.32,0-35.47,26.53-67.18,54.49-67.18,22.78,0,39.51,20.46,49.59,49.02l-4.9,5.76c-15.85-6.93-32-10.11-47.87-10.11-18.43,0-40.94,4.9-40.94,20.19,0,20.19,44.98,26.53,86.8,19.62l21.32-3.77Z"/>
            <path class="cls-1" d="M1280.56,519.21s-.06-.02-.08-.02l-28.67-4c-22.34-2.68-31.66-7.01-31.66-14.68,0-1.88.71-3.89,2.03-5.99,4.56-7.27,16.44-15.54,31.96-22.01,9.67-4.33,20-7.33,30.34-9l24.67,14.68c9-10.34,14.66-21.69,14.66-34.68,0-16.33-8.67-26.99-25.67-26.99-30.51,0-71.68,38.93-88.58,76.77-4.9,10.93-7.75,21.78-7.75,31.56s2.07,17.69,6.45,23.96c2.09,3.02,4.71,5.67,7.87,7.92,6.76,4.82,16.02,7.94,28.02,9.44l28.65,4c16.35,2.34,28,4.67,35.01,8.67-23.5,20.82-57.92,31.01-91.68,33.88-6.58.56-24.9,2.39-49.9-.88-37.68-4.93-108.2-14.15-140.18-68.04-25.63-43.2-19.15-102.72,11.91-152.63-6.31-7.44-12.62-14.89-18.93-22.33-8.89,15.13-28.54,53.24-26.91,105.29.46,14.51,3.51,60.1,34.78,105.25,43.53,62.85,109.53,78.35,129.57,83.06,15.17,3.56,34.39,7.27,59.66,5.09,38.68-3.33,77.27-19.2,99.01-50.01,5.34-18.34,8.35-42.34,8.35-58.01,0-24.98-11.98-36.31-42.93-40.31Z"/>
            <path class="cls-1" d="M1434.72,474.16c-.46,14.49-3.52,60.1-34.78,105.25-16.52,23.87-36.29,40.9-55.55,53.1l1.99-5.88c3.73-12.79,6.3-26.95,7.85-39.93,18.32-9.7,34.97-23.35,46.55-42.89,25.63-43.2,19.14-102.71-11.91-152.63,6.3-7.45,12.61-14.89,18.93-22.32,8.88,15.12,28.54,53.23,26.91,105.29Z"/>
          </g>
        </g>
        <path class="cls-1" d="M1420.44,394.67c-2.22-4.54-4.46-9.07-6.68-13.61h-9.38c-12.29-85.33-79.68-152.87-164.91-165.41-.96-.13-1.89-.27-2.85-.38-10.41-1.89-19.03-8.88-23.18-18.28-4.17,9.4-12.79,16.38-23.2,18.28-.98.11-1.91.25-2.85.38-85.25,12.54-152.63,80.08-164.93,165.41h-9.36c-2.22,4.54-4.46,9.07-6.68,13.61-.11-3.16-.23-7.79-.1-13.61.5-20.21,3.96-54.65,20.46-90.59.11-.27.25-.54.38-.8,25-51.62,70.53-91.43,125.96-108.85,6.14-1.93,12.36-3.58,18.74-4.94,1.21-.19,2.43-.44,3.64-.75,9.91-2.39,18.6-7.98,24.9-15.6.5-.57.98-1.19,1.42-1.78,5.88-7.81,9.36-17.55,9.36-28.08,0-2.43-.17-4.79-.54-7.1h5.55c-.34,2.32-.54,4.67-.54,7.1,0,10.53,3.48,20.27,9.36,28.08.46.59.92,1.21,1.42,1.78,6.32,7.62,14.99,13.21,24.92,15.6,1.19.31,2.41.56,3.64.75,6.35,1.36,12.59,3.01,18.72,4.94,55.68,17.49,101.35,57.57,126.29,109.5.02.06.06.11.08.17,16.48,35.95,19.96,70.36,20.46,90.57.13,5.82.02,10.45-.1,13.61Z"/>
        <path class="cls-1" d="M1266.68,122.59c-18.94,15.41-45.44,20.35-69.68,10.61-35.55-14.27-52.8-54.65-38.53-90.2,9.74-24.26,31.63-39.99,55.85-43-8.81,7.17-15.98,16.62-20.51,27.92-14.27,35.54,2.98,75.92,38.52,90.18,11.29,4.53,23.08,5.89,34.35,4.49Z"/>
        <polygon class="cls-1" points="1247 27.36 1254.02 48.95 1276.72 48.95 1258.35 62.3 1265.37 83.89 1247 70.55 1228.63 83.89 1235.65 62.3 1217.28 48.95 1239.98 48.95 1247 27.36"/>
      </g>
      <g>
        <path class="cls-1" d="M131.31,307.79c.74-2.77,2.24-2.98,4.48-.64,2.24,2.35,3.36,6.18,3.36,11.51,0,10.34-1.97,18.6-5.92,24.78-1.28,2.03-3.09,3.36-5.44,4-4.69,1.28-9.97-.26-15.83-4.64-5.12,8.21-11.94,11.99-20.46,11.35-.32,4.16-.85,8.13-1.6,11.91-.75,3.78-1.71,7.38-2.88,10.79-2.24,6.61-6.34,12.26-12.31,16.95-12.47,9.8-25.9,14.55-40.29,14.23-17.91-.43-29.1-8.63-33.57-24.62-1.28-4.48-1.12-10.61.48-18.39.85-3.94,2.05-8.02,3.6-12.23,1.54-4.21,3.49-8.5,5.84-12.87.74-1.38,1.65-1.81,2.72-1.28,1.06.64,1.28,1.71.64,3.2-5.22,12.37-7.25,20.57-6.08,24.62,3.52,13.21,12.89,19.82,28.14,19.82,22.17.1,37.67-6.5,46.52-19.82.32-6.93-2.24-15.56-7.67-25.9-.96-1.81-1.12-3.41-.48-4.8l6.71-12.47c.96-1.81,2.4-1.44,4.32,1.12.96,1.28,1.89,2.67,2.8,4.16.9,1.49,1.73,3.15,2.48,4.96,11.62,1.71,19.03-4.26,22.22-17.91.64-2.34,1.65-3.46,3.04-3.36,2.34.32,2.93,3.62,1.76,9.91,3.62,2.24,7.62,3.3,11.99,3.2,0-.53-.53-1.65-1.6-3.36-.32-.64-.27-1.76.16-3.36l2.88-10.87Z"/>
        <path class="cls-1" d="M201.17,371.26c-3.84,20.25-13.86,34-30.06,41.25-4.8,2.13-9.11,3.2-12.95,3.2-5.54,0-12.73-3.73-21.58-11.19-1.6-1.28-2.13-2.45-1.6-3.52.54-1.07,1.87-1.17,4-.32,9.49,3.3,20.2,1.33,32.13-5.92,11.94-7.25,19.66-15.35,23.18-24.3-7.99-.32-13.7-1.55-17.11-3.68-4.16-2.56-5.54-7.19-4.16-13.91,2.45-10.55,6.08-17.32,10.87-20.3,5.22-3.09,9.59-2.4,13.11,2.08,2.56,3.31,4.32,9.06,5.28,17.27,3.84-.21,6.02,1.71,6.55,5.76.32,2.77.1,5.65-.64,8.63-.75,3.09-2.19,4.74-4.32,4.96h-2.72ZM192.7,352.72c-2.13-4.48-4.69-6.66-7.67-6.55-1.71.32-2.99.96-3.84,1.92-.85,1.07-.91,2.03-.16,2.88,1.7,2.24,5.38,3.25,11.03,3.04.64,0,.85-.42.64-1.28Z"/>
        <path class="cls-1" d="M235.7,343.12c.53.53,1.14,1.01,1.84,1.44.69.43,1.41.8,2.16,1.12,1.7.64,3.89,2.4,6.55,5.28,4.9,5.44,7.62,10.5,8.15,15.19.43,4.58.43,8.37,0,11.35-.64,4.48-2.93,6.39-6.87,5.76-5.54-.96-10.61-3.89-15.19-8.79-4.58-4.9-7.25-10.18-7.99-15.83-.11-.42-.16-.77-.16-1.04s-.06-.5-.16-.72c-.32.21-.72.51-1.2.88-.48.38-.99.83-1.52,1.36-6.82,6.82-12.58,10.82-17.27,11.99-2.34.64-4.05-.64-5.12-3.84-1.06-3.84-.9-7.67.48-11.51.86-2.13,2.19-3.36,4-3.68,1.7-.32,4.64-1.54,8.79-3.68,4.05-2.13,7.09-4.42,9.11-6.87,4.16-5.01,7.89-5.7,11.19-2.08l3.2,3.68Z"/>
        <path class="cls-1" d="M258.57,348.72c-1.71,1.81-3.65,3.46-5.83,4.96-2.19,1.49-4.56,2.72-7.12,3.68-7.25,2.77-13.69,1.07-19.34-5.12-3.41-3.94-4.74-7.62-4-11.03.64-2.66,2.45-4,5.44-4,.85,0,2.61.69,5.28,2.08,2.77,1.39,5.01,2.03,6.71,1.92,10.66-1.17,15.83-3.73,15.51-7.67-.11-.64-.32-3.01-.64-7.11-.32-4.1-.8-10.04-1.44-17.83-.64-7.78-1.17-14.09-1.6-18.94-.43-4.85-.75-8.23-.96-10.15-.11-1.92-.11-3.62,0-5.12.1-1.49.37-2.77.8-3.84l3.36-6.87c.53-1.28,1.44-2.08,2.72-2.4,1.06-.32,2.08-.05,3.04.8,1.06.85,1.65,2.03,1.76,3.52l3.68,36.13c.64,8.53,1.41,15.96,2.32,22.3.9,6.34,2,11.59,3.28,15.75,2.13,6.61,5.6,10.45,10.39,11.51,7.03,1.6,9.06,7.09,6.08,16.47-1.28,3.52-3.3,5.6-6.08,6.23-4.37.74-8.63-.64-12.79-4.16-2.03-1.81-3.92-4.48-5.68-7.99-1.76-3.52-3.38-7.89-4.88-13.11Z"/>
        <path class="cls-1" d="M280.47,270.54l3.04-6.71c.85-2.02,2.08-2.93,3.68-2.72,1.6.11,2.72,1.12,3.36,3.04.85,2.45,1.78,4.56,2.8,6.31,1.01,1.76,2.05,3.22,3.12,4.4,2.13,2.24,1.17,5.65-2.88,10.23-.32.43-.48.85-.48,1.28.21,2.67.45,5.76.72,9.27.26,3.52.61,7.51,1.04,11.99l1.44,14.87c.64,6.93,1.04,12.95,1.2,18.07.16,5.12-.03,9.27-.56,12.47-1.81,11.73-6.5,18.54-14.07,20.46-.43.1-.85.19-1.28.24-.43.05-.85.13-1.28.24-2.45.32-4.16-1.39-5.12-5.12-.1-.53-.21-1.17-.32-1.92-.11-.74-.27-1.54-.48-2.4-.96-6.61-.21-10.82,2.24-12.63.85-.74,1.92-1.01,3.2-.8,1.49.21,2.88.35,4.16.4,1.28.06,2.29-.08,3.04-.4.21-2.98.08-7.49-.4-13.51-.48-6.02-1.2-13.56-2.16-22.62-1.07-9.8-1.92-17.8-2.56-23.98-.64-6.18-1.07-10.55-1.28-13.11l-.32-6.4c0-.42.05-.74.16-.96Z"/>
        <path class="cls-1" d="M361.05,388.85c.53-5.01,1.7-10.18,3.52-15.51,1.81-5.33,4.26-10.76,7.36-16.31,1.17-2.02,2.5-2.56,4-1.6,1.38.96,1.49,2.51.32,4.64-7.78,14.39-9.75,25.21-5.92,32.45,5.44,10.55,15.83,15.51,31.18,14.87,17.48-.85,32.72-6.55,45.72-17.11-2.56-.85-7.19-1.49-13.91-1.92-3.3-.21-5.97-.43-7.99-.64-2.03-.21-3.3-.43-3.84-.64-2.67-1.07-4.48-2.83-5.44-5.28-1.6-4.48-.91-8.9,2.08-13.27,5.01-7.57,13.8-13,26.38-16.31,2.02-.53,3.78-.26,5.28.8,1.49.96,1.97,3.73,1.44,8.31-.43,4.37-1.28,7.09-2.56,8.15-1.28,1.06-3.94,1.6-7.99,1.6s-6.45.37-6.87,1.12c15.13.74,23.66,4.53,25.58,11.35.64,2.56.05,5.92-1.76,10.07-1.92,4.26-3.68,7.3-5.28,9.11-15.35,15.45-32.56,23.61-51.64,24.46-14.28.64-25.16-2.77-32.61-10.23-6.07-6.18-8.42-15.56-7.03-28.14ZM414.6,436.81c.64-.85,1.54-1.12,2.72-.8,2.13.74,4.21,1.7,6.24,2.88,2.02,1.17,3.89,2.5,5.6,4,.85.85,1.01,1.81.48,2.88l-7.67,12.15c-.85,1.17-1.81,1.28-2.88.32-.43-.43-1.36-1.09-2.8-2-1.44-.91-3.33-2.05-5.67-3.44l-5.28,8.63c-.75,1.06-1.71,1.17-2.88.32-.54-.43-1.79-1.23-3.76-2.4-1.97-1.17-4.61-2.77-7.91-4.8-1.17-.64-1.33-1.54-.48-2.72l7.67-11.51c.64-.85,1.54-1.12,2.72-.8,3.2,1.06,6.18,2.61,8.95,4.64l4.96-7.36Z"/>
        <path class="cls-1" d="M443.7,336.73c2.88-7.14,6.34-11.24,10.39-12.31,4.16-1.06,10.6.05,19.34,3.36,4.37,1.71,9.17,3.17,14.39,4.4,5.22,1.23,10.76,2.27,16.63,3.12,5.97.85,11.67,1.36,17.11,1.52,5.44.16,10.6.03,15.51-.4,5.12-.42,6.82,1.01,5.12,4.32l-6.39,12.15c-.64,1.07-2.08,1.55-4.32,1.44-19.08-.96-34.75.43-47,4.16-.53.11-2.24.69-5.12,1.76-2.88,1.07-6.98,2.67-12.31,4.8-10.55,4.16-17.91,6.23-22.06,6.23-2.56,0-4.42-2.72-5.6-8.15-1.06-5.33-.05-8.79,3.04-10.39.75-.42,3.84-.8,9.27-1.12,5.54-.32,16.04-2.45,31.5-6.4-9.59-3.3-21.58-4.64-35.97-4-3.52.11-4.69-1.38-3.52-4.48Z"/>
        <path class="cls-1" d="M524.27,311.31c0,2.67-.91,4.1-2.72,4.32-1.71.11-2.83-1.12-3.36-3.68-.96-6.18-2.29-10.18-4-11.99-1.81-2.02-3.62-1.86-5.44.48-13.11,17.59-24.57,28.35-34.37,32.29-5.01,2.13-9.27,2.56-12.79,1.28-4.16-1.38-6.55-4.05-7.19-7.99l-.32-1.92,1.92-.64c5.33-1.92,10.58-4.1,15.75-6.55,5.17-2.45,10.2-5.17,15.11-8.15,7.46-4.69,12.74-10.87,15.83-18.55,3.2-7.67,6.71-11.62,10.55-11.83,4.37-.21,7.35,3.89,8.95,12.31.64,3.31,1.12,6.66,1.44,10.07.32,3.41.53,6.93.64,10.55ZM532.59,374.62c.64-.85,1.54-1.12,2.72-.8,2.13.74,4.21,1.7,6.24,2.88,2.02,1.17,3.89,2.5,5.6,4,.85.85,1.01,1.81.48,2.88l-7.67,12.15c-.85,1.17-1.81,1.28-2.88.32-.43-.43-1.36-1.09-2.8-2-1.44-.91-3.33-2.05-5.68-3.44l-5.28,8.63c-.75,1.06-1.71,1.17-2.88.32-.54-.43-1.79-1.23-3.76-2.4-1.97-1.17-4.61-2.77-7.91-4.8-1.17-.64-1.33-1.55-.48-2.72l7.67-11.51c.64-.85,1.54-1.12,2.72-.8,3.2,1.06,6.18,2.61,8.95,4.64l4.96-7.35Z"/>
        <path class="cls-1" d="M621.32,269.42c.64-.85,1.54-1.12,2.72-.8,2.13.75,4.21,1.71,6.24,2.88,2.02,1.17,3.89,2.51,5.6,4,.85.85,1.01,1.81.48,2.88l-7.67,12.15c-.85,1.17-1.81,1.28-2.88.32-.43-.42-1.36-1.09-2.8-2-1.44-.9-3.33-2.05-5.68-3.44l-5.28,8.63c-.75,1.07-1.71,1.17-2.88.32-.54-.42-1.79-1.22-3.76-2.4-1.97-1.17-4.61-2.77-7.91-4.8-1.17-.64-1.33-1.54-.48-2.72l7.67-11.51c.64-.85,1.54-1.12,2.72-.8,3.2,1.07,6.18,2.61,8.95,4.64l4.96-7.35ZM635.71,294.68c2.45-3.2,3.94-1.76,4.48,4.32l4.64,38.37c1.17,9.91,4.53,14.82,10.07,14.71,2.56,0,4.32,1.17,5.28,3.52.96,2.56.85,5.81-.32,9.75-1.17,3.94-2.83,5.92-4.96,5.92-6.61,0-11.3-1.71-14.07-5.12-2.67-3.3-4.58-9.11-5.75-17.43-4.05,6.08-6.87,9.49-8.47,10.23-1.49.75-4.21.96-8.15.64-5.12-.32-9.49-1.65-13.11-4-2.35-1.49-3.36-3.78-3.04-6.87.32-3.09,1.49-6.5,3.52-10.23,1.06-1.92,2.02-3.57,2.88-4.96.85-1.38,1.6-2.45,2.24-3.2,5.12-5.44,11.56-10.34,19.34-14.71-.85-8.42-.64-13.43.64-15.03l4.8-5.92ZM631.71,327.14c-8.1,2.56-13.64,5.97-16.63,10.23-.43.64-.27,1.17.48,1.6,5.33,2.24,11.3,2.45,17.91.64-.21-1.7-.48-3.6-.8-5.68-.32-2.08-.64-4.34-.96-6.79Z"/>
        <path class="cls-1" d="M679.99,335.77c3.41,0,3.68,2.83.8,8.47,2.98,2.35,6.66,3.52,11.03,3.52,7.14.11,13.11-6.45,17.91-19.66.74-1.92,1.86-2.66,3.36-2.24,1.6.53,2.24,1.76,1.92,3.68l-1.44,5.6c.96.75,2.1,1.47,3.44,2.16,1.33.69,2.8,1.31,4.4,1.84,1.6.53,3.06.91,4.4,1.12,1.33.21,2.48.32,3.44.32-.86-3.3-1.71-5.7-2.56-7.19-.85-1.38-.7-3.09.48-5.12l4.79-8.15c1.7-1.7,3.04-.37,4,4,1.49,7.46,1.44,14.6-.16,21.42-1.6,6.82-4.26,11.41-7.99,13.75-.43.32-1.23.48-2.4.48-7.46.32-13.86-1.81-19.18-6.4-4.05,7.78-9.33,12.53-15.83,14.23-6.71,1.81-13.43-.8-20.14-7.83-6.39,7.67-11.51,11.51-15.35,11.51-2.13,0-3.62-1.76-4.48-5.28-.42-1.92-.74-3.68-.96-5.28-.42-5.33,1.33-8.21,5.28-8.63,10.55-1.06,18.12-5.76,22.7-14.07.85-1.49,1.7-2.24,2.56-2.24ZM709.25,285.09c.64-.96,1.6-1.22,2.88-.8,2.13.75,4.18,1.71,6.16,2.88,1.97,1.17,3.81,2.51,5.52,4,.85.85,1.01,1.81.48,2.88l-7.67,12.15c-.85,1.17-1.76,1.33-2.72.48-.43-.42-1.28-1.04-2.56-1.84s-2.88-1.78-4.8-2.96l-4.96,7.83c-.75,1.07-1.71,1.23-2.88.48-.53-.42-1.79-1.25-3.76-2.48-1.97-1.22-4.61-2.85-7.91-4.88-1.07-.64-1.23-1.49-.48-2.56l7.67-11.51c1.28-1.81,4.8-.8,10.55,3.04l4.48-6.71ZM698.06,267.18c.64-.85,1.54-1.12,2.72-.8,2.13.75,4.18,1.71,6.16,2.88,1.97,1.17,3.81,2.51,5.52,4,.85.85,1.01,1.81.48,2.88l-7.67,12.15c-.75,1.07-1.71,1.17-2.88.32-1.07-.85-4.9-3.25-11.51-7.19-1.17-.64-1.39-1.49-.64-2.56l7.83-11.67Z"/>
        <path class="cls-1" d="M783.59,321.7c.21-.96.59-1.54,1.12-1.76,1.17-.32,2.88.91,5.12,3.68,1.7,2.03,3.3,4.53,4.79,7.51,1.49,2.99,2.77,6.5,3.84,10.55,5.01,17.91,1.81,34.21-9.59,48.92-6.61,8.53-14.71,14.07-24.3,16.63-3.52.96-6.5.85-8.95-.32-4.69-2.03-8.87-3.86-12.55-5.52-3.68-1.65-6.85-3.12-9.51-4.4-1.7-.96-2.29-2.03-1.76-3.2.64-1.28,1.81-1.71,3.52-1.28,7.25,2.13,13,2.66,17.27,1.6,4.58-1.17,10.44-3.89,17.59-8.15,12.57-7.57,20.2-14.92,22.86-22.06.1-.21.16-.53.16-.96-.96-5.01-5.49-11.72-13.59-20.14-.75-.74-.96-1.76-.64-3.04l4.63-18.07Z"/>
        <path class="cls-1" d="M835.87,336.25c4.16-11.4,8.74-17.05,13.75-16.95,3.73.11,7.09,2.56,10.07,7.35,2.77,4.58,4.42,9.86,4.96,15.83.53,5.86-.43,13.7-2.88,23.5-2.35,9.7-6.98,18.71-13.91,27.02-6.93,8.31-12.74,12.68-17.43,13.11-3.84.53-9.49,0-16.95-1.6-3.62-.75-6.85-1.52-9.67-2.32-2.82-.8-5.14-1.57-6.96-2.32-1.17-.53-1.6-1.44-1.28-2.72.32-1.39,1.33-1.92,3.04-1.6,6.39.96,14.01.42,22.86-1.6,4.37-.96,10.76-5.12,19.18-12.47,4.26-3.73,7.7-7.06,10.31-9.99,2.61-2.93,4.29-5.57,5.04-7.91-.11-.53-.29-1.2-.56-2-.27-.8-.56-1.68-.88-2.64-4.48,5.76-9.86,7.19-16.15,4.32-7.14-3.2-7.99-12.2-2.56-27.02ZM851.05,343.76c-3.09-5.01-6.39-5.22-9.91-.64,2.66,2.98,5.97,3.2,9.91.64Z"/>
        <path class="cls-1" d="M206.29,487.33c-5.44-2.88-12.85-1.86-22.22,3.04-7.57,3.94-12.15,8.79-13.75,14.55-.21.85-.16,1.71.16,2.56,1.92,4.16,8.69,6.55,20.3,7.19,11.62.64,17.75,3.52,18.38,8.63,1.38,10.12-.8,17.53-6.55,22.22-15.88,12.68-33.73,19.4-53.56,20.14-24.84.96-38.05-8.31-39.65-27.82-.75-9.8,1.44-20.04,6.55-30.7,2.88-5.86,6.02-10.98,9.43-15.35,1.6-2.13,2.98-2.61,4.16-1.44,1.17,1.17.85,3.04-.96,5.6-9.27,13.64-12.21,24.94-8.79,33.89,4.37,11.08,14.6,16.47,30.7,16.15,18.97-.32,34.59-5.12,46.84-14.39-2.45-.85-7.67-1.54-15.67-2.08-10.55-.85-16.73-3.94-18.54-9.27-1.92-5.54-1.81-11.35.32-17.43,4.69-13.21,11.94-23.39,21.74-30.54,8.21-5.97,15.51-8.15,21.9-6.55,6.18,1.6,7.94,7.41,5.28,17.43-1.17,4.26-3.2,5.65-6.07,4.16ZM161.37,576.86c.64-.85,1.54-1.12,2.72-.8,2.13.74,4.21,1.7,6.23,2.88,2.02,1.17,3.89,2.5,5.6,4,.85.85,1.01,1.81.48,2.88l-7.67,12.15c-.86,1.17-1.81,1.28-2.88.32-.43-.43-1.36-1.09-2.8-2-1.44-.91-3.33-2.05-5.68-3.44l-5.28,8.63c-.75,1.06-1.71,1.17-2.88.32-.53-.43-1.79-1.23-3.76-2.4-1.97-1.17-4.61-2.77-7.91-4.8-1.17-.64-1.33-1.55-.48-2.72l7.67-11.51c.64-.85,1.54-1.12,2.72-.8,3.2,1.06,6.18,2.61,8.95,4.64l4.96-7.35Z"/>
        <path class="cls-1" d="M250.89,485.74c-2.13-.96-2.56-3.3-1.28-7.03.64-1.81,1.3-3.49,2-5.04.69-1.54,1.36-2.96,2-4.24,1.28-2.56,2.98-3.25,5.12-2.08,13.11,7.67,21.1,18.71,23.98,33.09.74,3.84,1.09,7.43,1.04,10.79-.05,3.36-.61,6.48-1.68,9.35-1.07,3.52-2.67,5.7-4.8,6.56-11.3,4.58-20.89,7.09-28.78,7.51-11.83.85-16.04-5.54-12.63-19.18.64-2.66,1.65-4,3.04-4,1.06,0,1.97.64,2.72,1.92.85,1.28,5.7,1.39,14.55.32,8.85-1.06,15.77-2.82,20.78-5.28-1.6-8.1-10.29-15.67-26.06-22.7Z"/>
        <path class="cls-1" d="M306.69,415.39c2.13-3.73,3.46-3.36,4,1.12,2.24,19.82,3.52,37.94,3.84,54.36.32,16.63.64,26.7.96,30.22.43,8.31,5.49,12.79,15.19,13.43,3.3.21,5.17,1.81,5.6,4.8.1.53.13,1.31.08,2.32-.05,1.01-.19,2.21-.4,3.6-.43,2.56-1.01,4.64-1.76,6.24-.64,1.49-1.81,2.24-3.52,2.24-15.03,0-23.02-7.25-23.98-21.74-.21-3.3-.43-7.78-.64-13.43-.21-5.65-.43-12.42-.64-20.3-.21-7.25-.77-14.71-1.68-22.38-.91-7.67-2.16-15.61-3.76-23.82-.53-2.77-.27-4.96.8-6.55l5.91-10.07Z"/>
        <path class="cls-1" d="M330.67,533.7c-2.02,0-3.46-1.39-4.32-4.16l-2.08-7.03c-.96-5.22,1.17-7.83,6.4-7.83h29.74c4.37,0,6.55,1.87,6.55,5.6,0,.43-.03.83-.08,1.2-.05.38-.13.72-.24,1.04l-2.08,7.03c-.86,2.77-2.24,4.16-4.16,4.16h-29.74Z"/>
        <path class="cls-1" d="M360.25,533.7c-2.02,0-3.46-1.39-4.32-4.16l-2.08-7.03c-.96-5.22,1.17-7.83,6.4-7.83h29.74c4.37,0,6.55,1.87,6.55,5.6,0,.43-.03.83-.08,1.2-.05.38-.13.72-.24,1.04l-2.08,7.03c-.85,2.77-2.24,4.16-4.16,4.16h-29.74Z"/>
        <path class="cls-1" d="M389.82,533.7c-2.02,0-3.46-1.39-4.32-4.16l-2.08-7.03c-.96-5.22,1.17-7.83,6.4-7.83h29.74c4.37,0,6.55,1.87,6.55,5.6,0,.43-.03.83-.08,1.2-.05.38-.13.72-.24,1.04l-2.08,7.03c-.85,2.77-2.24,4.16-4.16,4.16h-29.74Z"/>
        <path class="cls-1" d="M419.4,533.7c-2.02,0-3.46-1.39-4.32-4.16l-2.08-7.03c-.96-5.22,1.17-7.83,6.4-7.83h29.74c4.37,0,6.55,1.87,6.55,5.6,0,.43-.03.83-.08,1.2-.05.38-.13.72-.24,1.04l-2.08,7.03c-.85,2.77-2.24,4.16-4.16,4.16h-29.74Z"/>
        <path class="cls-1" d="M448.98,533.7c-2.02,0-3.46-1.39-4.32-4.16l-2.08-7.03c-.96-5.22,1.17-7.83,6.39-7.83h29.74c4.37,0,6.55,1.87,6.55,5.6,0,.43-.03.83-.08,1.2-.05.38-.13.72-.24,1.04l-2.08,7.03c-.85,2.77-2.24,4.16-4.16,4.16h-29.74Z"/>
        <path class="cls-1" d="M478.55,533.7c-2.02,0-3.46-1.39-4.32-4.16l-2.08-7.03c-.96-5.22,1.17-7.83,6.39-7.83h29.74c4.37,0,6.55,1.87,6.55,5.6,0,.43-.03.83-.08,1.2-.05.38-.13.72-.24,1.04l-2.08,7.03c-.85,2.77-2.24,4.16-4.16,4.16h-29.74Z"/>
        <path class="cls-1" d="M508.13,533.7c-2.02,0-3.46-1.39-4.32-4.16l-2.08-7.03c-.96-5.22,1.17-7.83,6.39-7.83h29.74c4.37,0,6.55,1.87,6.55,5.6,0,.43-.03.83-.08,1.2-.05.38-.13.72-.24,1.04l-2.08,7.03c-.85,2.77-2.24,4.16-4.16,4.16h-29.74Z"/>
        <path class="cls-1" d="M537.7,533.7c-2.02,0-3.46-1.39-4.32-4.16l-2.08-7.03c-.96-5.22,1.17-7.83,6.39-7.83h29.74c4.37,0,6.55,1.87,6.55,5.6,0,.43-.03.83-.08,1.2-.05.38-.13.72-.24,1.04l-2.08,7.03c-.85,2.77-2.24,4.16-4.16,4.16h-29.74Z"/>
        <path class="cls-1" d="M625.79,514.51c4.05,0,6.4,1.65,7.04,4.96.11.53.18,1.09.24,1.68.05.59.02,1.15-.08,1.68-1.17,7.25-3.52,10.87-7.04,10.87-10.87,0-20.84-5.44-29.9-16.31-12.26,10.87-21.85,16.31-28.78,16.31-3.84,0-6.24-2.66-7.19-7.99-.96-5.33.27-8.79,3.68-10.39,1.28-.53,2.45-.8,3.52-.8,6.71-.11,12.47-1.6,17.27-4.48-2.03-1.6-6.45-2.88-13.27-3.84-2.24-.32-3.14-1.81-2.72-4.48.85-4.37,3.89-8.63,9.11-12.79,10.02-7.67,21.21-7.99,33.57-.96,6.18,3.62,8.79,7.57,7.83,11.83-.96,3.94-4.64,7.78-11.03,11.51,1.7,1.07,4.05,1.84,7.03,2.32,2.98.48,6.55.77,10.71.88Z"/>
        <path class="cls-1" d="M650.89,498.21c3.41,0,3.68,2.83.8,8.47,2.98,2.35,6.66,3.52,11.03,3.52,7.14.11,13.11-6.45,17.91-19.66.74-1.92,1.86-2.66,3.36-2.24,1.6.54,2.24,1.76,1.92,3.68l-1.44,5.6c.96.75,2.1,1.47,3.44,2.16,1.33.7,2.8,1.31,4.4,1.84,1.6.53,3.06.91,4.4,1.12,1.33.21,2.48.32,3.44.32-.86-3.3-1.71-5.7-2.56-7.19-.85-1.38-.69-3.09.48-5.12l4.8-8.15c1.7-1.7,3.04-.37,4,4,1.49,7.46,1.44,14.6-.16,21.42-1.6,6.82-4.26,11.41-7.99,13.75-.43.32-1.23.48-2.4.48-7.46.32-13.86-1.81-19.18-6.4-4.05,7.78-9.33,12.53-15.83,14.23-6.71,1.81-13.43-.8-20.14-7.83-6.39,7.67-11.51,11.51-15.35,11.51-2.13,0-3.62-1.76-4.48-5.28-.42-1.92-.74-3.68-.96-5.28-.42-5.33,1.33-8.21,5.28-8.63,10.55-1.06,18.12-5.76,22.7-14.07.85-1.49,1.7-2.24,2.56-2.24Z"/>
        <path class="cls-1" d="M769.36,533.7c-3.84,20.25-13.86,34-30.06,41.25-4.8,2.13-9.11,3.2-12.95,3.2-5.54,0-12.73-3.73-21.58-11.19-1.6-1.28-2.13-2.45-1.6-3.52.54-1.07,1.87-1.17,4-.32,9.49,3.3,20.2,1.33,32.13-5.92,11.94-7.25,19.66-15.35,23.18-24.3-7.99-.32-13.7-1.55-17.11-3.68-4.16-2.56-5.54-7.19-4.16-13.91,2.45-10.55,6.08-17.32,10.87-20.3,5.22-3.09,9.59-2.4,13.11,2.08,2.56,3.3,4.32,9.06,5.28,17.27,3.84-.21,6.02,1.71,6.55,5.75.32,2.77.11,5.65-.64,8.63-.75,3.09-2.19,4.74-4.32,4.96h-2.72ZM760.89,515.15c-2.13-4.48-4.69-6.66-7.68-6.55-1.71.32-2.98.96-3.84,1.92-.85,1.07-.91,2.03-.16,2.88,1.7,2.24,5.38,3.25,11.03,3.04.64,0,.85-.42.64-1.28Z"/>
        <path class="cls-1" d="M800.85,508.12c3.3,4.05,6.61,6.24,9.91,6.55,2.98.32,4.69,1.39,5.12,3.2.32,1.28.32,3.52,0,6.71-.11,1.6-.35,2.96-.72,4.08-.38,1.12-.72,2.05-1.04,2.8-.64,1.49-1.76,2.24-3.36,2.24-5.97,0-11.72-3.41-17.27-10.23-6.61,6.82-13.86,10.23-21.74,10.23-2.24,0-3.68-1.44-4.32-4.32l-1.44-6.55c-.32-1.7.11-3.46,1.28-5.28,1.17-1.92,2.66-2.93,4.48-3.04,12.68-.96,20.46-4.1,23.34-9.43.96-1.6,1.97-2.4,3.04-2.4,1.6,0,2.4.91,2.4,2.72,0,.85.05,1.49.16,1.92.11.43.16.69.16.8ZM788.54,548.57c.64-.85,1.54-1.12,2.72-.8,2.13.74,4.18,1.7,6.15,2.88,1.97,1.17,3.81,2.5,5.52,4,.85.85,1.01,1.81.48,2.88l-7.67,12.15c-.75,1.06-1.71,1.17-2.88.32-1.07-.85-4.9-3.25-11.51-7.19-1.17-.75-1.39-1.65-.64-2.72l7.83-11.51Z"/>
        <path class="cls-1" d="M824.36,439.69c4.26,31.44,5.86,53.02,4.8,64.75-1.71,17.69-7.83,27.44-18.39,29.26-2.66.42-4.16-1.23-4.48-4.96-.1-1.17-.18-2.48-.24-3.92-.05-1.44-.03-3.01.08-4.72.21-3.41,1.76-5.28,4.64-5.59,5.97-.64,9.75-2.45,11.35-5.44-.11-1.28-.88-7.75-2.32-19.42-1.44-11.67-3.65-28.54-6.63-50.6-.32-2.02-.62-3.7-.88-5.04-.27-1.33-.51-2.37-.72-3.12-1.06-2.56-1.01-5.01.16-7.35l4-7.99c1.49-3.09,3.04-2.4,4.64,2.08.85,2.13,1.84,4.1,2.96,5.92,1.12,1.81,2.53,3.41,4.24,4.8,2.24,1.81,2.45,3.89.64,6.24l-3.84,5.12Z"/>
        <path class="cls-1" d="M854.57,420.67c2.13-4.58,3.52-3.52,4.16,3.2l3.84,39.01c3.2,34.96,2.45,56.97-2.24,66.03-1.07,1.92-2.08,2.72-3.04,2.4-1.07-.32-1.55-2.88-1.44-7.67.11-4.05-.32-10.74-1.28-20.06-.96-9.32-2.4-21.18-4.32-35.57l-3.36-26.54c-.32-2.24,0-4.42.96-6.55l6.71-14.23Z"/>
      </g>
      <path class="cls-1" d="M65.97,472.57c0-2.71.5-5.27,1.52-7.66,1.01-2.39,2.42-4.49,4.22-6.29s3.9-3.21,6.29-4.22c2.39-1.01,4.95-1.52,7.66-1.52s5.27.51,7.66,1.52c2.39,1.01,4.5,2.42,6.33,4.22,1.83,1.8,3.26,3.9,4.29,6.29,1.04,2.39,1.55,4.95,1.55,7.66s-.52,5.27-1.55,7.66c-1.04,2.39-2.47,4.49-4.29,6.29s-3.93,3.22-6.33,4.25c-2.39,1.04-4.95,1.55-7.66,1.55s-5.27-.52-7.66-1.55c-2.39-1.04-4.49-2.45-6.29-4.25-1.8-1.8-3.21-3.9-4.22-6.29-1.01-2.39-1.52-4.95-1.52-7.66ZM69.23,472.65c0,3.01.74,5.77,2.22,8.29,1.48,2.52,3.47,4.51,5.96,5.99,2.49,1.48,5.24,2.22,8.25,2.22s5.83-.74,8.33-2.22c2.49-1.48,4.48-3.48,5.96-5.99,1.48-2.52,2.22-5.28,2.22-8.29s-.74-5.82-2.22-8.29c-1.48-2.47-3.47-4.44-5.96-5.92-2.49-1.48-5.27-2.22-8.33-2.22s-5.76.74-8.25,2.22c-2.49,1.48-4.48,3.45-5.96,5.92-1.48,2.47-2.22,5.23-2.22,8.29ZM85.59,462.58c1.83,0,3.39.46,4.7,1.37,1.31.91,1.96,2.23,1.96,3.96,0,.79-.27,1.52-.81,2.18-.54.67-1.15,1.21-1.81,1.63-.67.42-1.25.7-1.74.85,1.04,1.38,2.52,3.18,4.44,5.4,1.04,1.18,1.96,1.92,2.78,2.22.81.3,1.27.44,1.37.44.05.1.06.27.04.52-.03.25-.04.42-.04.52v.15c-.44.05-.95.09-1.52.11-.57.03-1.15.04-1.74.04-1.09,0-1.99-.23-2.7-.7-.72-.47-1.42-1.1-2.11-1.89l-4.29-5.85c-.25-.3-.42-.44-.52-.44h-.44v4.37c0,.64.01,1.17.04,1.59.02.42.08.78.18,1.07.1.2.38.35.85.44.47.1.8.15,1,.15.1.1.15.28.15.55s-.05.46-.15.56c-.59-.1-1.27-.15-2.04-.15h-4.29c-.81,0-1.52.05-2.11.15-.05-.1-.07-.28-.07-.56s.02-.46.07-.55c.2,0,.56-.05,1.07-.15.52-.1.8-.25.85-.44.1-.3.16-.65.18-1.07.03-.42.04-.95.04-1.59v-10.58c0-.64-.01-1.17-.04-1.59-.03-.42-.09-.78-.18-1.07-.05-.2-.33-.32-.85-.37-.52-.05-.88-.07-1.07-.07-.05-.1-.07-.31-.07-.63s.02-.5.07-.55c.69.05,1.43.07,2.22.07h2.15c.64,0,1.33-.01,2.07-.04.74-.02,1.53-.04,2.37-.04ZM87.81,468.13c0-1.13-.26-2.12-.78-2.96-.52-.84-1.27-1.26-2.26-1.26-.35,0-.66.01-.92.04-.27.03-.46.11-.55.26-.05.2-.09.44-.11.74-.03.3-.04.67-.04,1.11v5.7h1.18c.94,0,1.75-.33,2.44-1,.69-.67,1.04-1.54,1.04-2.63Z"/>
    </g>
  </g>
</svg>